<svg width="300" height="300" viewBox="0 0 300 300" fill="none" xmlns="http://www.w3.org/2000/svg">
<path d="M300 229.44H0V229.59H300V229.44Z" fill="#EBEBEB"/>
<path d="M261.402 239.094H250.068V239.244H261.402V239.094Z" fill="#EBEBEB"/>
<path d="M193.512 238.05H175.83V238.2H193.512V238.05Z" fill="#EBEBEB"/>
<path d="M249.468 233.526H221.202V233.676H249.468V233.526Z" fill="#EBEBEB"/>
<path d="M38.0581 234.534H31.4761V234.684H38.0581V234.534Z" fill="#EBEBEB"/>
<path d="M66.5339 234.534H43.3979V234.684H66.5339V234.534Z" fill="#EBEBEB"/>
<path d="M135.09 237.066H102.6V237.216H135.09V237.066Z" fill="#EBEBEB"/>
<path d="M142.2 202.68H26.346C25.4384 202.678 24.5686 202.317 23.9274 201.674C23.2862 201.032 22.926 200.162 22.926 199.254V36.396C22.9339 35.4936 23.2975 34.6308 23.9379 33.9949C24.5782 33.3591 25.4436 33.0015 26.346 33H142.2C143.109 33 143.98 33.361 144.623 34.0035C145.265 34.646 145.626 35.5174 145.626 36.426V199.254C145.626 200.163 145.265 201.034 144.623 201.677C143.98 202.319 143.109 202.68 142.2 202.68ZM26.346 33.12C25.4782 33.1216 24.6465 33.4674 24.0334 34.0816C23.4204 34.6958 23.076 35.5282 23.076 36.396V199.254C23.076 200.122 23.4204 200.954 24.0334 201.568C24.6465 202.183 25.4782 202.528 26.346 202.53H142.2C143.068 202.528 143.901 202.183 144.515 201.569C145.129 200.955 145.474 200.122 145.476 199.254V36.396C145.474 35.5276 145.129 34.6953 144.515 34.0813C143.901 33.4672 143.068 33.1216 142.2 33.12H26.346Z" fill="#EBEBEB"/>
<path d="M271.986 202.68H156.126C155.218 202.678 154.347 202.317 153.705 201.675C153.063 201.033 152.702 200.162 152.7 199.254V36.396C152.709 35.4931 153.074 34.6302 153.716 33.9946C154.357 33.3589 155.223 33.0015 156.126 33H271.986C272.887 33.0031 273.751 33.3613 274.39 33.997C275.029 34.6327 275.392 35.4947 275.4 36.396V199.254C275.4 200.161 275.041 201.03 274.401 201.672C273.761 202.314 272.892 202.677 271.986 202.68ZM156.126 33.12C155.258 33.1216 154.425 33.4672 153.811 34.0813C153.197 34.6953 152.852 35.5276 152.85 36.396V199.254C152.852 200.122 153.197 200.955 153.811 201.569C154.425 202.183 155.258 202.528 156.126 202.53H271.986C272.854 202.528 273.687 202.183 274.301 201.569C274.915 200.955 275.26 200.122 275.262 199.254V36.396C275.26 35.5276 274.915 34.6953 274.301 34.0813C273.687 33.4672 272.854 33.1216 271.986 33.12H156.126Z" fill="#EBEBEB"/>
<path d="M261.402 239.094H250.068V239.244H261.402V239.094Z" fill="#EBEBEB"/>
<path d="M193.512 238.05H175.83V238.2H193.512V238.05Z" fill="#EBEBEB"/>
<path d="M249.468 233.526H221.202V233.676H249.468V233.526Z" fill="#EBEBEB"/>
<path d="M38.0581 234.534H31.4761V234.684H38.0581V234.534Z" fill="#EBEBEB"/>
<path d="M66.5339 234.534H43.3979V234.684H66.5339V234.534Z" fill="#EBEBEB"/>
<path d="M135.09 237.066H102.6V237.216H135.09V237.066Z" fill="#EBEBEB"/>
<path d="M60.522 229.446C60.522 229.446 42.99 213.6 40.968 196.998C38.028 172.944 69.972 202.014 79.494 195.798C89.016 189.582 58.956 160.998 83.346 155.388C107.736 149.778 113.616 170.838 123.24 186.222C139.014 211.422 140.076 147.378 166.59 178.11C183.876 198.144 171.72 229.488 171.72 229.488L60.522 229.446Z" fill="#EBEBEB"/>
<path d="M229.998 229.44C230.046 227.04 231.6 206.352 246.534 195.936C241.998 211.902 243 223.902 245.052 229.44H229.998Z" fill="#F5F5F5"/>
<path d="M238.296 229.44C238.662 227.85 239.034 216.48 253.818 207.45C248.25 217.932 247.344 225.804 248.106 229.44H238.296Z" fill="#F5F5F5"/>
<path d="M206.808 229.44C206.808 228.384 206.112 219.39 199.608 214.854C201.582 221.802 201.144 227.028 200.25 229.44H206.808Z" fill="#F5F5F5"/>
<path d="M203.196 229.44C203.04 228.744 202.878 223.8 196.44 219.87C198.84 224.43 199.26 227.856 198.924 229.44H203.196Z" fill="#F5F5F5"/>
<path d="M163.452 229.44C163.086 227.85 162.714 216.48 147.93 207.45C153.498 217.932 154.404 225.804 153.642 229.44H163.452Z" fill="#F5F5F5"/>
<path d="M79.386 229.44C78.918 228.108 77.478 218.586 64.2 211.026C69.906 219.798 71.448 226.398 71.166 229.44H79.386Z" fill="#F5F5F5"/>
<path d="M74.634 229.44C74.742 228.462 74.148 221.508 82.542 215.982C79.89 222.396 79.908 227.214 80.64 229.44H74.634Z" fill="#F5F5F5"/>
<path d="M79.2479 81.078C68.5619 78.12 84.4259 73.14 101.496 73.308C141.816 73.704 152.166 67.308 180.846 66.168C189.78 65.814 182.91 75.534 162.018 79.05C135.564 83.502 90.7019 78.312 101.466 82.284C112.23 86.256 99.7439 96.198 76.7819 92.016C59.0219 88.788 32.8619 98.724 42.6659 89.568C48.8639 83.778 62.1959 86.568 68.4659 86.394C74.7359 86.22 95.0519 85.452 79.2479 81.078Z" fill="#FAFAFA"/>
<path d="M90.9839 117.366C94.7999 118.872 104.376 115.608 110.46 115.716C116.544 115.824 125.982 118.116 130.902 113.214C135.822 108.312 110.346 111.144 105.102 111.618C95.3999 112.488 85.3979 115.2 90.9839 117.366Z" fill="#FAFAFA"/>
<path d="M70.548 52.986C68.46 51.426 62.706 54.312 59.208 54.036C55.71 53.76 50.436 51.294 47.244 55.884C44.052 60.474 58.938 58.452 61.998 58.146C67.662 57.6 73.608 55.26 70.548 52.986Z" fill="#FAFAFA"/>
<path d="M267.192 84.402C265.104 82.842 259.35 85.728 255.852 85.452C252.354 85.176 247.08 82.71 243.888 87.3C240.696 91.89 255.582 89.868 258.642 89.562C264.306 88.992 270.252 86.682 267.192 84.402Z" fill="#FAFAFA"/>
<path d="M249.198 52.116C243.738 55.314 228.396 52.752 219.162 54.408C209.928 56.064 196.092 61.8 187.452 55.656C178.812 49.512 218.268 47.502 226.362 46.92C241.374 45.84 257.196 47.43 249.198 52.116Z" fill="#FAFAFA"/>
<path d="M183.648 156.534C172.716 145.518 190.326 68.5321 214.014 63.5341C237.702 58.5361 239.1 145.062 230.52 155.334C220.83 166.932 195.558 168.534 183.648 156.534Z" fill="#F5F5F5"/>
<path d="M209.214 134.4H203.868C200.88 166.01 200.88 197.83 203.868 229.44H209.214C206.226 197.83 206.226 166.01 209.214 134.4Z" fill="#EBEBEB"/>
<path d="M226.5 136.698L217.932 143.934" stroke="white" stroke-width="7" stroke-linecap="round" stroke-linejoin="round"/>
<path d="M190.602 118.902L194.802 123" stroke="white" stroke-width="7" stroke-linecap="round" stroke-linejoin="round"/>
<path d="M225.438 108.294L220.002 112.098" stroke="white" stroke-width="7" stroke-linecap="round" stroke-linejoin="round"/>
<path d="M150 256.536C214.249 256.536 266.334 253.495 266.334 249.744C266.334 245.993 214.249 242.952 150 242.952C85.7505 242.952 33.666 245.993 33.666 249.744C33.666 253.495 85.7505 256.536 150 256.536Z" fill="#F5F5F5"/>
<path d="M150.648 244.92L155.466 244.848L156.57 233.676L151.758 233.748L150.648 244.92Z" fill="#FFB573"/>
<path d="M77.916 242.922L82.416 244.65L90.492 234.654L85.998 232.926L77.916 242.922Z" fill="#FFB573"/>
<path d="M84.066 243.924L78.804 241.314C78.7179 241.271 78.6197 241.259 78.5258 241.28C78.4319 241.3 78.3479 241.353 78.288 241.428L75.534 244.836C75.4688 244.92 75.4232 245.017 75.4005 245.121C75.3778 245.225 75.3786 245.333 75.4027 245.436C75.4269 245.539 75.4738 245.636 75.5401 245.719C75.6064 245.802 75.6904 245.87 75.786 245.916C77.496 246.726 78.786 247.242 80.91 248.316C82.224 248.97 84.432 249.762 88.71 249.762C90.684 249.762 90.996 247.764 90.168 247.578C86.454 246.768 85.23 246.036 84.642 244.578C84.5425 244.293 84.3358 244.059 84.066 243.924Z" fill="#263238"/>
<path d="M155.4 244.29L150.138 244.374C150.042 244.374 149.949 244.407 149.876 244.469C149.802 244.53 149.753 244.616 149.736 244.71L148.872 249C148.849 249.104 148.85 249.212 148.875 249.316C148.901 249.419 148.949 249.515 149.018 249.597C149.086 249.679 149.172 249.744 149.27 249.787C149.367 249.83 149.473 249.85 149.58 249.846C151.476 249.786 154.218 249.63 156.6 249.594C159.39 249.552 159.984 249.666 163.254 249.594C165.234 249.594 165.75 247.56 164.922 247.392C161.142 246.624 159.876 246.582 156.588 244.626C156.231 244.406 155.819 244.29 155.4 244.29Z" fill="#263238"/>
<path d="M153.216 132.666C153.498 135.936 153.846 139.332 154.266 142.626C154.647 145.889 155.2 149.129 155.922 152.334C156.006 152.73 156.108 153.102 156.21 153.48L156.366 154.044L156.444 154.326L156.51 154.53C156.706 155.131 156.959 155.712 157.266 156.264C157.62 156.894 158.021 157.495 158.466 158.064C158.916 158.664 159.402 159.264 159.93 159.864C161.012 161.055 162.158 162.187 163.362 163.254C163.962 163.794 164.598 164.34 165.234 164.868C165.87 165.396 166.542 165.924 167.148 166.404L165.408 169.572C162.014 168.164 158.844 166.265 156 163.938C154.476 162.703 153.117 161.277 151.956 159.696C151.316 158.816 150.779 157.866 150.354 156.864L150.192 156.468L150.072 156.138L149.838 155.472C149.682 155.028 149.526 154.584 149.4 154.146C148.365 150.709 147.579 147.202 147.048 143.652C146.502 140.148 146.118 136.71 145.914 133.128L153.216 132.666Z" fill="#FFB573"/>
<path d="M145.134 129.6C142.344 133.26 146.592 147.774 146.592 147.774L157.32 145.518C157.062 141.323 156.356 137.167 155.214 133.122C153.396 127.272 148.2 125.568 145.134 129.6Z" fill="#F2BF00"/>
<path opacity="0.2" d="M148.536 136.44C150.018 137.874 150.996 143.13 151.146 146.814L146.598 147.768C145.597 144.257 144.857 140.678 144.384 137.058C146.022 136.236 147.75 135.684 148.536 136.44Z" fill="black"/>
<path d="M166.074 165.942L171.348 167.694L168.588 172.434C168.588 172.434 164.334 171.612 164.196 168.108L166.074 165.942Z" fill="#FFB573"/>
<path d="M173.514 169.674L169.914 172.644L168.588 172.434L171.348 167.694L173.514 169.674Z" fill="#FFB573"/>
<path d="M171.03 168.138L168.978 167.112L166.974 166.608L165.312 169.08L166.674 169.416L168.666 168.816C169.308 168.995 169.973 169.079 170.64 169.068C171.198 168.96 171.03 168.138 171.03 168.138Z" fill="#FFB573"/>
<path opacity="0.2" d="M156.57 233.676L156 239.436L151.182 239.514L151.752 233.754L156.57 233.676Z" fill="black"/>
<path opacity="0.2" d="M86.0041 232.926L82.1221 237.726L86.2621 239.892L90.4921 234.654L86.0041 232.926Z" fill="black"/>
<path d="M125.772 120.114C124.098 139.056 116.172 156.828 115.236 160.668C118.836 161.754 132.486 165.822 139.92 168.036C152.838 143.628 151.554 128.064 151.554 128.064C151.554 128.064 150.126 127.176 148.11 126.162C147.474 125.844 146.79 125.514 146.064 125.19C145.668 125.01 145.254 124.836 144.864 124.668C141.429 123.424 137.925 122.379 134.37 121.536C133.698 121.374 133.008 121.224 132.342 121.086C131.676 120.948 131.106 120.846 130.542 120.75C127.866 120.306 125.772 120.114 125.772 120.114Z" fill="#F2BF00"/>
<path d="M116.916 161.322H116.874C116.855 161.316 116.838 161.307 116.822 161.295C116.807 161.283 116.794 161.267 116.785 161.25C116.775 161.233 116.769 161.214 116.767 161.194C116.765 161.175 116.767 161.155 116.772 161.136C116.772 161.1 117.822 157.41 119.208 153.654C121.608 147.114 124.578 136.626 124.938 132.054C124.94 132.034 124.945 132.015 124.954 131.997C124.963 131.98 124.975 131.964 124.99 131.951C125.005 131.938 125.023 131.929 125.042 131.923C125.061 131.917 125.08 131.914 125.1 131.916C125.12 131.917 125.139 131.923 125.157 131.932C125.174 131.941 125.19 131.953 125.203 131.968C125.216 131.983 125.225 132.001 125.231 132.02C125.237 132.038 125.24 132.058 125.238 132.078C124.878 136.686 121.92 147.21 119.49 153.768C118.104 157.518 117.09 161.196 117.06 161.232C117.047 161.259 117.027 161.282 117.001 161.298C116.976 161.314 116.946 161.322 116.916 161.322Z" fill="white"/>
<path d="M144.384 138.426L145.41 139.728H148.584L145.236 140.778L144.384 138.426Z" fill="white"/>
<path opacity="0.2" d="M128.094 129.402C127.896 131.202 124.494 138.576 122.094 139.782C122.778 137.274 123.426 134.634 123.996 131.898L128.094 129.402Z" fill="black"/>
<path d="M146.226 125.268L146.064 125.19C145.668 125.01 145.254 124.836 144.864 124.668C141.429 123.424 137.925 122.379 134.37 121.536C133.854 121.41 133.326 121.296 132.81 121.188L133.314 122.112C134.364 124.038 136.314 127.626 141.012 129.21C141.696 129.455 142.415 129.588 143.142 129.606C143.64 129.637 144.137 129.544 144.59 129.334C145.043 129.125 145.436 128.806 145.734 128.406C146.307 127.467 146.484 126.338 146.226 125.268Z" fill="white"/>
<path d="M138.912 110.034C138.564 113.634 137.382 119.988 134.346 121.536C135.636 123.936 137.406 126.732 141.372 128.07C145.338 129.408 145.464 126.444 144.84 124.668C141.342 122.646 142.272 119.868 143.712 117.468L138.912 110.034Z" fill="#FFB573"/>
<path opacity="0.2" d="M140.868 113.064L143.712 117.45C143.368 118.014 143.073 118.606 142.83 119.22C141.456 118.578 139.95 116.412 140.244 114.858C140.341 114.227 140.552 113.619 140.868 113.064Z" fill="black"/>
<path d="M140.028 104.832C138.942 109.488 138.072 112.158 139.68 115.194C142.08 119.76 148.368 119.352 150.822 115.11C153.03 111.3 154.422 104.31 150.498 101.172C149.635 100.471 148.607 100.003 147.512 99.8124C146.417 99.6214 145.291 99.7136 144.242 100.08C143.192 100.447 142.254 101.076 141.517 101.908C140.779 102.74 140.267 103.746 140.028 104.832Z" fill="#FFB573"/>
<path d="M138.03 107.736C140.658 113.448 144.57 104.232 144.186 101.898C143.802 99.564 139.86 99.498 138.786 100.368C137.712 101.238 136.8 105.078 138.03 107.736Z" fill="#263238"/>
<path d="M142.746 101.25C144.162 102.9 149.478 104.382 150.546 104.148C149.927 103.696 149.457 103.069 149.196 102.348C149.196 102.348 140.616 97.1339 142.746 101.25Z" fill="#263238"/>
<path d="M147.888 102.456C149.55 103.86 155.04 104.454 156.054 104.052C154.762 103.561 153.678 102.642 152.982 101.448C152.982 101.448 145.11 98.742 147.888 102.456Z" fill="#263238"/>
<path d="M148.05 98.5739C149.85 97.2059 152.934 89.7359 157.02 85.9319C160.29 82.8839 163.23 84.0119 159.918 88.5599C156.606 93.1079 151.452 97.3319 148.374 99.7559C148.245 99.3681 148.136 98.9735 148.05 98.5739Z" fill="#F2BF00"/>
<path opacity="0.5" d="M152.61 95.508C156.57 91.794 162.696 84.996 159.648 85.908C156.6 86.82 148.656 99.222 152.61 95.508Z" fill="white"/>
<path d="M140.088 100.278C139.942 99.974 139.86 99.6432 139.847 99.3063C139.834 98.9693 139.891 98.6333 140.013 98.319C140.135 98.0046 140.32 97.7187 140.557 97.4787C140.794 97.2388 141.077 97.05 141.39 96.924C147.288 94.524 151.416 101.376 154.716 100.452C154.716 100.452 155.166 102.378 152.64 102.324C150.114 102.27 140.088 100.278 140.088 100.278Z" fill="#263238"/>
<path d="M140.208 100.296C140.916 99.5219 138.516 98.9519 136.938 99.1259C138.84 99.7979 139.452 101.124 140.208 100.296Z" fill="#263238"/>
<path d="M139.956 100.422C139.062 100.974 138.948 98.502 139.416 96.984C139.722 99 140.91 99.834 139.956 100.422Z" fill="#263238"/>
<path d="M148.836 98.016L147.918 97.35C147.649 97.1533 147.321 97.0538 146.988 97.068C141.966 97.2 138.222 106.11 138.894 107.868L140.406 108.786C139.71 106.968 143.136 97.83 148.836 98.016Z" fill="#F2BF00"/>
<path d="M145.236 98.2019C144.702 96.1499 147.696 87.7679 147.036 82.4519C146.484 78.1919 143.034 78.048 142.47 83.748C141.906 89.448 143.214 95.604 144.078 99.192C144.462 98.898 145.236 98.2019 145.236 98.2019Z" fill="#F2BF00"/>
<path opacity="0.5" d="M143.91 93.8279C143.214 88.6619 143.13 79.6259 145.506 81.6779C147.882 83.7299 144.6 98.9999 143.91 93.8279Z" fill="white"/>
<path d="M136.674 108.252C136.706 109.453 137.213 110.592 138.084 111.42C139.248 112.512 140.562 111.648 140.85 110.166C141.114 108.834 140.85 106.662 139.362 106.134C137.874 105.606 136.65 106.8 136.674 108.252Z" fill="#FFB573"/>
<path d="M139.92 168.042L123.72 163.194C123.241 167.602 123.001 172.032 123 176.466C134.658 187.062 149.4 197.064 154.026 199.614C153.21 207.546 149.616 238.422 149.616 238.422L157.77 238.296C157.77 238.296 166.8 216 166.974 200.7C167.136 186 139.92 168.042 139.92 168.042Z" fill="#263238"/>
<path opacity="0.2" d="M131.316 183.54C130.116 182.592 128.97 181.632 127.812 180.654L130.35 170.454C130.35 170.454 131.934 177.678 131.316 183.54Z" fill="black"/>
<path opacity="0.2" d="M131.316 183.54C130.116 182.592 128.97 181.632 127.812 180.654L130.35 170.454C130.35 170.454 131.934 177.678 131.316 183.54Z" fill="black"/>
<path d="M132.906 165.942C132.906 165.942 126.84 195.63 119.706 207.798C111.906 221.13 89.4539 238.554 89.4539 238.554L82.2 235.2C82.2 235.2 97.062 217.2 105.198 204.534C114.468 190.086 111.258 172.254 115.23 160.662L132.906 165.942Z" fill="#263238"/>
<path opacity="0.3" d="M103.614 178.8C103.467 179.052 103.421 179.35 103.484 179.635C103.547 179.92 103.716 180.17 103.956 180.336C104.424 180.528 105.018 180.162 105.294 179.514C105.444 179.264 105.493 178.967 105.43 178.682C105.368 178.398 105.199 178.148 104.958 177.984C104.49 177.762 103.89 178.122 103.614 178.8Z" fill="white"/>
<path opacity="0.3" d="M100.344 178.722C100.758 178.398 101.544 178.722 102.066 179.382C102.267 179.592 102.409 179.851 102.478 180.133C102.546 180.416 102.539 180.711 102.456 180.99C101.926 180.865 101.439 180.598 101.049 180.217C100.659 179.837 100.38 179.357 100.242 178.83C100.27 178.788 100.304 178.752 100.344 178.722Z" fill="white"/>
<path d="M102.804 194.892L116.088 189.372C116.524 189.189 116.882 188.861 117.101 188.442C117.32 188.024 117.386 187.542 117.288 187.08L115.26 177.48L94.95 185.928L100.35 194.136C100.608 194.527 100.994 194.816 101.442 194.954C101.889 195.091 102.371 195.07 102.804 194.892Z" fill="#F2BF00"/>
<path d="M102.888 188.094C100.562 188.094 98.2876 187.406 96.3518 186.117C94.4161 184.827 92.9053 182.993 92.0099 180.846C91.0406 178.515 90.8466 175.934 91.4566 173.485C92.0666 171.035 93.4482 168.847 95.3973 167.243C97.3465 165.639 99.7598 164.704 102.281 164.577C104.802 164.45 107.297 165.137 109.398 166.536C111.499 167.936 113.094 169.974 113.947 172.35C114.801 174.726 114.867 177.313 114.138 179.729C113.408 182.146 111.92 184.264 109.894 185.77C107.869 187.276 105.412 188.091 102.888 188.094ZM92.5619 180.6C93.5502 182.985 95.3349 184.954 97.612 186.171C99.8891 187.388 102.518 187.777 105.05 187.273C107.582 186.77 109.861 185.403 111.499 183.408C113.137 181.412 114.032 178.91 114.032 176.328C114.032 173.746 113.137 171.244 111.499 169.248C109.861 167.253 107.582 165.886 105.05 165.383C102.518 164.879 99.8891 165.268 97.612 166.485C95.3349 167.702 93.5502 169.671 92.5619 172.056C91.4299 174.792 91.4299 177.865 92.5619 180.6Z" fill="#F2BF00"/>
<path d="M98.9519 166.074C98.7377 166.08 98.5271 166.017 98.3519 165.894C97.6499 165.402 97.8659 164.094 98.1659 163.116C98.5533 161.87 99.1279 160.691 99.8699 159.618C101.34 157.536 103.29 156.564 104.406 157.35C105.504 158.13 105.228 160.284 103.758 162.366C102.992 163.422 102.072 164.356 101.028 165.138C100.439 165.642 99.7191 165.967 98.9519 166.074ZM103.506 157.674C102.69 157.674 101.454 158.418 100.368 159.96C99.6626 160.98 99.1145 162.101 98.7419 163.284C98.3519 164.592 98.4779 165.24 98.6999 165.402C98.9219 165.564 99.5819 165.462 100.68 164.652C101.672 163.908 102.546 163.018 103.272 162.012C104.472 160.272 104.862 158.412 104.064 157.812C103.896 157.71 103.701 157.664 103.506 157.68V157.674Z" fill="#F2BF00"/>
<path d="M95.9099 166.848C94.6053 166.834 93.3104 166.622 92.0699 166.218C89.6699 165.408 88.1579 163.818 88.5839 162.558C89.0219 161.262 91.1699 160.896 93.5879 161.712C94.818 162.135 95.977 162.742 97.0259 163.512C97.8599 164.112 98.7899 165.054 98.5199 165.864C98.2499 166.674 96.9479 166.848 95.9099 166.848ZM89.1359 162.75C88.8299 163.668 90.2219 164.97 92.2439 165.654C93.4229 166.036 94.6527 166.238 95.8919 166.254C97.2419 166.254 97.8479 165.954 97.9319 165.69C98.0159 165.426 97.7399 164.832 96.6479 164.01C95.6491 163.276 94.5472 162.693 93.3779 162.282C91.1099 161.526 89.4119 161.934 89.1359 162.756V162.75Z" fill="#F2BF00"/>
<path d="M99 166.476C98.9497 166.476 98.9001 166.464 98.856 166.44C98.8118 166.416 98.7747 166.381 98.748 166.338C98.5344 165.974 98.4205 165.56 98.418 165.138C98.4224 165.06 98.4556 164.987 98.5111 164.933C98.5666 164.879 98.6403 164.847 98.718 164.844C98.7981 164.846 98.8744 164.878 98.9305 164.936C98.9866 164.993 99.018 165.07 99.018 165.15C99.025 165.447 99.1054 165.738 99.252 165.996C99.2948 166.063 99.3094 166.144 99.2925 166.222C99.2757 166.299 99.2287 166.367 99.162 166.41C99.1154 166.447 99.0592 166.47 99 166.476Z" fill="#F2BF00"/>
<path d="M101.118 169.086C101.041 169.086 100.966 169.056 100.91 169.002C100.854 168.949 100.821 168.875 100.818 168.798C100.786 168.09 100.562 167.403 100.17 166.813C99.7775 166.222 99.2323 165.749 98.5921 165.444C98.5559 165.428 98.5231 165.405 98.4956 165.377C98.4682 165.349 98.4466 165.315 98.4321 165.278C98.4176 165.241 98.4105 165.202 98.4112 165.163C98.4119 165.123 98.4203 165.084 98.4361 165.048C98.4518 165.012 98.4746 164.979 98.503 164.951C98.5315 164.924 98.565 164.902 98.6018 164.888C98.6386 164.873 98.6778 164.866 98.7173 164.867C98.7569 164.868 98.7958 164.876 98.8321 164.892C99.573 165.246 100.204 165.794 100.656 166.479C101.108 167.164 101.366 167.96 101.4 168.78C101.402 168.819 101.395 168.858 101.382 168.895C101.368 168.931 101.347 168.965 101.32 168.993C101.294 169.022 101.261 169.045 101.226 169.061C101.19 169.077 101.151 169.085 101.112 169.086H101.118Z" fill="#F2BF00"/>
<path d="M100.152 170.778C100.077 170.777 100.005 170.749 99.9481 170.7C99.206 170.058 98.601 169.272 98.169 168.391C97.7371 167.509 97.4871 166.55 97.4341 165.57C97.4371 165.492 97.4699 165.418 97.5257 165.363C97.5814 165.309 97.656 165.277 97.7341 165.276C97.7735 165.277 97.8123 165.285 97.8484 165.301C97.8845 165.317 97.9172 165.34 97.9445 165.368C97.9718 165.397 97.9932 165.43 98.0076 165.467C98.0219 165.503 98.0289 165.543 98.0281 165.582C98.0885 166.476 98.3247 167.348 98.7231 168.151C99.1216 168.953 99.6745 169.668 100.35 170.256C100.405 170.313 100.436 170.389 100.436 170.469C100.436 170.549 100.405 170.625 100.35 170.682C100.297 170.736 100.227 170.77 100.152 170.778Z" fill="#F2BF00"/>
<path d="M98.8559 166.506C98.3488 166.416 97.8839 166.166 97.5299 165.792C97.478 165.736 97.4491 165.663 97.449 165.587C97.4489 165.511 97.4777 165.438 97.5295 165.383C97.5813 165.327 97.6522 165.293 97.7281 165.288C97.8039 165.282 97.8789 165.306 97.9379 165.354C98.2859 165.684 98.7599 165.954 98.8799 165.9C98.9539 165.87 99.0369 165.87 99.1106 165.901C99.1843 165.932 99.2427 165.991 99.2729 166.065C99.3032 166.139 99.3028 166.222 99.2718 166.296C99.2409 166.369 99.1819 166.428 99.1079 166.458C99.0276 166.489 98.9422 166.506 98.8559 166.506Z" fill="#F2BF00"/>
<path opacity="0.2" d="M115.506 178.626L115.806 180.054L96.39 188.13L95.592 186.906L115.506 178.626Z" fill="black"/>
<path opacity="0.2" d="M99.8461 190.2C102.162 189.234 101.238 187.02 103.548 186.06C105.858 185.1 106.788 187.314 109.098 186.354C111.408 185.394 110.484 183.174 112.8 182.214C114.318 181.578 115.236 182.316 116.34 182.628L116.94 185.388C116.094 185.07 115.266 184.698 114.048 185.202C111.738 186.162 112.662 188.376 110.346 189.342C108.03 190.308 107.112 188.088 104.796 189.048C102.48 190.008 103.41 192.228 101.1 193.188C100.711 193.353 100.293 193.437 99.87 193.434L97.8 190.29C98.4709 190.506 99.1968 190.474 99.8461 190.2Z" fill="white"/>
<path d="M96.51 187.302L115.146 179.556C115.758 179.298 116.244 178.808 116.497 178.193C116.749 177.578 116.749 176.889 116.496 176.274C116.239 175.661 115.749 175.174 115.134 174.92C114.52 174.666 113.829 174.665 113.214 174.918L94.5839 182.67C93.9694 182.926 93.4816 183.415 93.2274 184.031C92.9732 184.646 92.9734 185.337 93.228 185.952C93.4851 186.565 93.9749 187.052 94.5901 187.305C95.2052 187.558 95.8956 187.557 96.51 187.302Z" fill="#F2BF00"/>
<path d="M112.2 174.918C112.956 174.534 115.896 173.508 116.844 175.746C117.792 177.984 112.95 178.23 111.444 178.146C109.938 178.062 109.236 181.83 104.574 183.408C99.9121 184.986 99.0181 183.462 96.7741 184.734C94.5301 186.006 93.4261 187.608 92.9461 186.072C92.4661 184.536 92.7901 182.442 95.2141 181.926C97.6381 181.41 100.41 179.232 102.498 178.692C105.83 177.702 109.075 176.44 112.2 174.918Z" fill="#F2BF00"/>
<path opacity="0.2" d="M112.2 174.918C112.956 174.534 115.896 173.508 116.844 175.746C117.792 177.984 112.95 178.23 111.444 178.146C109.938 178.062 109.236 181.83 104.574 183.408C99.9121 184.986 99.0181 183.462 96.7741 184.734C94.5301 186.006 93.4261 187.608 92.9461 186.072C92.4661 184.536 92.7901 182.442 95.2141 181.926C97.6381 181.41 100.41 179.232 102.498 178.692C105.83 177.702 109.075 176.44 112.2 174.918Z" fill="black"/>
<path d="M89.4061 240.054L81.2461 235.77L82.6861 233.028L91.9021 237.63L89.4061 240.054Z" fill="#F2BF00"/>
<path d="M158.814 238.47L149.1 238.62L149.046 235.482L159.906 235.146L158.814 238.47Z" fill="#F2BF00"/>
<path d="M146.58 108.18C146.466 108.552 146.58 108.912 146.82 108.984C147.06 109.056 147.348 108.816 147.462 108.444C147.576 108.072 147.462 107.712 147.222 107.64C146.982 107.568 146.688 107.808 146.58 108.18Z" fill="#263238"/>
<path d="M150.786 109.434C150.678 109.806 150.786 110.166 151.026 110.244C151.266 110.322 151.56 110.07 151.668 109.698C151.776 109.326 151.668 108.966 151.428 108.894C151.188 108.822 150.9 109.062 150.786 109.434Z" fill="#263238"/>
<path d="M149.4 109.2C149.504 110.47 149.782 111.72 150.228 112.914C149.919 113.019 149.592 113.055 149.267 113.021C148.943 112.987 148.63 112.883 148.35 112.716L149.4 109.2Z" fill="#ED893E"/>
<path d="M146.478 113.268C146.078 113.094 145.717 112.84 145.418 112.522C145.119 112.205 144.888 111.83 144.738 111.42C144.734 111.405 144.732 111.39 144.734 111.375C144.735 111.36 144.74 111.345 144.747 111.332C144.754 111.318 144.764 111.307 144.776 111.297C144.788 111.287 144.801 111.28 144.816 111.276C144.831 111.272 144.846 111.27 144.861 111.272C144.876 111.273 144.891 111.278 144.904 111.285C144.917 111.292 144.929 111.302 144.939 111.314C144.948 111.326 144.956 111.339 144.96 111.354C145.132 111.806 145.408 112.21 145.765 112.536C146.123 112.861 146.552 113.097 147.018 113.226C147.046 113.234 147.07 113.253 147.085 113.279C147.099 113.305 147.103 113.335 147.096 113.364C147.092 113.379 147.085 113.392 147.075 113.404C147.066 113.416 147.054 113.426 147.04 113.433C147.027 113.441 147.012 113.445 146.997 113.447C146.982 113.448 146.967 113.447 146.952 113.442C146.79 113.396 146.631 113.338 146.478 113.268Z" fill="#263238"/>
<path d="M146.19 105.552C146.155 105.535 146.124 105.51 146.1 105.48C146.081 105.456 146.068 105.428 146.06 105.398C146.053 105.369 146.051 105.338 146.055 105.308C146.06 105.278 146.07 105.249 146.086 105.222C146.102 105.196 146.123 105.174 146.148 105.156C146.435 104.935 146.77 104.786 147.126 104.723C147.482 104.659 147.849 104.682 148.194 104.79C148.223 104.8 148.249 104.816 148.271 104.836C148.294 104.856 148.312 104.881 148.325 104.908C148.337 104.935 148.345 104.965 148.346 104.995C148.347 105.025 148.343 105.056 148.332 105.084C148.309 105.139 148.266 105.184 148.211 105.209C148.157 105.233 148.095 105.236 148.038 105.216C147.763 105.135 147.472 105.121 147.19 105.175C146.908 105.23 146.644 105.351 146.418 105.528C146.385 105.551 146.347 105.565 146.307 105.569C146.267 105.573 146.227 105.567 146.19 105.552Z" fill="#263238"/>
<path d="M153.528 108.546C153.49 108.55 153.452 108.544 153.417 108.531C153.381 108.517 153.35 108.496 153.324 108.468C153.143 108.245 152.911 108.069 152.648 107.955C152.385 107.84 152.098 107.789 151.812 107.808C151.753 107.813 151.694 107.796 151.647 107.759C151.6 107.722 151.569 107.669 151.56 107.61C151.551 107.55 151.567 107.49 151.603 107.441C151.639 107.393 151.692 107.361 151.752 107.352C152.114 107.326 152.477 107.386 152.81 107.528C153.144 107.67 153.44 107.889 153.672 108.168C153.714 108.212 153.737 108.27 153.737 108.33C153.737 108.39 153.714 108.448 153.672 108.492C153.631 108.525 153.581 108.544 153.528 108.546Z" fill="#263238"/>
<path d="M85.1159 245.4C84.7405 245.202 84.3883 244.962 84.0659 244.686C84.0489 244.672 84.0364 244.653 84.03 244.631C84.0236 244.61 84.0235 244.587 84.0299 244.566C84.036 244.545 84.0485 244.526 84.0656 244.512C84.0828 244.498 84.1039 244.49 84.1259 244.488C84.3359 244.488 86.1479 244.302 86.5259 244.782C86.5672 244.835 86.5925 244.899 86.5989 244.966C86.6053 245.033 86.5924 245.1 86.5619 245.16C86.5223 245.265 86.4581 245.359 86.3745 245.434C86.291 245.51 86.1907 245.564 86.0819 245.592C85.7474 245.64 85.4066 245.572 85.1159 245.4ZM84.4319 244.692C85.0919 245.202 85.6679 245.454 86.0039 245.37C86.0782 245.35 86.1465 245.312 86.203 245.26C86.2594 245.208 86.3023 245.143 86.3279 245.07C86.3411 245.047 86.348 245.021 86.348 244.995C86.348 244.969 86.3411 244.943 86.3279 244.92C86.1359 244.65 85.1579 244.626 84.4319 244.674V244.692Z" fill="#F2BF00"/>
<path d="M84.0901 244.68C84.0692 244.673 84.0519 244.658 84.0421 244.638C84.0307 244.621 84.0247 244.601 84.0247 244.581C84.0247 244.561 84.0307 244.541 84.0421 244.524C84.0721 244.47 84.7921 243.276 85.4941 243.114C85.5795 243.091 85.669 243.087 85.7561 243.102C85.8433 243.118 85.9259 243.153 85.9981 243.204C86.0739 243.242 86.1344 243.306 86.1693 243.383C86.2042 243.461 86.2116 243.548 86.1901 243.63C86.0401 244.158 84.7081 244.674 84.1441 244.692C84.1348 244.694 84.125 244.695 84.1156 244.693C84.1062 244.69 84.0974 244.686 84.0901 244.68ZM85.8241 243.366C85.7351 243.332 85.637 243.332 85.5481 243.366C85.0981 243.468 84.6001 244.122 84.3481 244.464C84.9481 244.344 85.8661 243.906 85.9501 243.594C85.9501 243.564 85.9801 243.498 85.8541 243.414L85.8241 243.366Z" fill="#F2BF00"/>
<path d="M155.904 244.95C155.885 244.941 155.868 244.927 155.854 244.911C155.841 244.894 155.831 244.875 155.826 244.854C155.824 244.831 155.829 244.808 155.839 244.788C155.85 244.768 155.866 244.751 155.886 244.74C156.102 244.62 158.022 243.612 158.616 243.93C158.672 243.958 158.719 244.001 158.753 244.054C158.786 244.107 158.805 244.167 158.808 244.23C158.821 244.332 158.809 244.436 158.773 244.533C158.738 244.63 158.68 244.718 158.604 244.788C158.082 245.262 156.696 245.094 155.922 244.95H155.904ZM158.466 244.11C158.1 243.99 157.056 244.41 156.3 244.782C157.362 244.944 158.154 244.884 158.448 244.62C158.498 244.573 158.536 244.515 158.559 244.45C158.582 244.385 158.589 244.316 158.58 244.248C158.581 244.223 158.574 244.199 158.561 244.178C158.549 244.156 158.53 244.139 158.508 244.128L158.466 244.11Z" fill="#F2BF00"/>
<path d="M155.904 244.95C155.889 244.938 155.876 244.922 155.868 244.905C155.86 244.887 155.856 244.868 155.856 244.848C155.856 244.794 155.97 243.492 156.576 242.982C156.658 242.91 156.753 242.855 156.856 242.82C156.959 242.785 157.067 242.771 157.176 242.778C157.488 242.778 157.584 242.958 157.608 243.09C157.704 243.63 156.564 244.692 155.988 244.962C155.959 244.967 155.93 244.963 155.904 244.95ZM157.272 243.006C157.234 243.002 157.196 243.002 157.158 243.006C157.075 242.997 156.991 243.006 156.911 243.032C156.832 243.058 156.758 243.1 156.696 243.156C156.345 243.579 156.135 244.102 156.096 244.65C156.696 244.284 157.452 243.45 157.392 243.126C157.38 243.09 157.368 243.036 157.272 243V243.006Z" fill="#F2BF00"/>
<path d="M128.544 127.8L121.284 134.928L117.684 138.528L115.926 140.328L115.062 141.24L114.63 141.69L114.282 142.086C112.401 144.358 111.102 147.053 110.496 149.94C110.127 151.487 109.872 153.059 109.734 154.644C109.662 155.448 109.602 156.258 109.578 157.044C109.578 157.452 109.578 157.86 109.578 158.244C109.578 158.628 109.578 159.078 109.578 159.414L106.026 160.086C105.775 159.184 105.574 158.268 105.426 157.344C105.276 156.438 105.15 155.544 105.072 154.608C104.918 152.746 104.932 150.875 105.114 149.016C105.297 147.088 105.699 145.188 106.314 143.352C106.971 141.418 107.922 139.597 109.134 137.952L109.596 137.352L110.01 136.83L110.85 135.792C111.408 135.108 111.978 134.43 112.554 133.77C113.706 132.438 114.876 131.124 116.076 129.846C118.476 127.278 120.912 124.83 123.516 122.436L128.544 127.8Z" fill="#FFB573"/>
<path d="M125.772 120.12C121.176 119.838 111.828 132.216 111.828 132.216L119.742 140.016C119.742 140.016 125.382 134.46 129.156 129.864C133.272 124.836 131.34 120.456 125.772 120.12Z" fill="#F2BF00"/>
<path d="M109.476 158.724L110.376 163.524L104.898 163.326C104.898 163.326 104.724 159.672 106.14 158.43L109.476 158.724Z" fill="#FFB573"/>
<path d="M109.23 168.27L104.226 165.888L104.898 163.332L110.376 163.53L109.23 168.27Z" fill="#FFB573"/>
<g clip-path="url(#clip0_88_3760)">
<rect width="7" height="13" rx="1" transform="matrix(1 0 -0.48313 0.875549 173.281 162)" fill="#D9D9D9"/>
<rect width="5" height="12" rx="1" transform="matrix(1 0 -0.48313 0.875549 173.798 162.875)" fill="white"/>
<circle cx="0.5" cy="0.5" r="0.5" transform="matrix(1 0 -0.48313 0.875549 170.966 171.631)" fill="#C00D0D"/>
</g>
<path d="M240.288 249.66C240.288 249.66 241.662 237.234 249.6 226.8C243.726 230.694 236.46 243.42 237.096 249.69L240.288 249.66Z" fill="#F2BF00"/>
<path d="M242.466 249.66C242.466 249.66 242.616 240.72 250.752 232.86C244.872 235.512 238.356 244.62 239.274 249.66H242.466Z" fill="#F2BF00"/>
<path d="M235.62 249.66C235.62 249.66 238.728 240.72 236.604 232.86C239.214 235.512 239.898 244.62 237.558 249.66H235.62Z" fill="#F2BF00"/>
<path d="M226.614 250.812H178.332L182.652 236.328L189.438 232.14L194.682 225.984L218.286 221.04L225.996 227.688L234.636 232.14L235.716 238.416L242.502 245.508L244.506 250.944L226.614 250.812Z" fill="#F2BF00"/>
<path opacity="0.6" d="M226.614 250.812H178.332L182.652 236.328L189.438 232.14L194.682 225.984L218.286 221.04L225.996 227.688L234.636 232.14L235.716 238.416L242.502 245.508L244.506 250.944L226.614 250.812Z" fill="white"/>
<path opacity="0.2" d="M189.438 232.14L196.626 231.06L202.506 232.14L197.136 229.776L191.208 230.064L189.438 232.14Z" fill="#F2BF00"/>
<path opacity="0.2" d="M225.996 227.688L220.674 228.198L215.43 227.688L221.736 229.776L228.426 228.942L225.996 227.688Z" fill="#F2BF00"/>
<path opacity="0.2" d="M209.328 239.028L224.466 239.694L232.314 239.028L224.808 241.782L209.328 239.028Z" fill="#F2BF00"/>
<path d="M207 244.458C204.474 244.836 203.268 246.594 203.556 248.496C203.844 250.398 205.5 251.73 208.032 251.352C210.564 250.974 212.988 249.036 212.706 247.152C212.424 245.268 209.52 244.08 207 244.458Z" fill="#F2BF00"/>
<path opacity="0.9" d="M207 244.458C204.474 244.836 203.268 246.594 203.556 248.496C203.844 250.398 205.5 251.73 208.032 251.352C210.564 250.974 212.988 249.036 212.706 247.152C212.424 245.268 209.52 244.08 207 244.458Z" fill="white"/>
<path d="M206.172 248.622C205.41 248.352 204.636 248.58 204.444 249.126C204.252 249.672 204.72 250.326 205.482 250.602C206.244 250.878 207.024 250.638 207.21 250.092C207.396 249.546 206.94 248.886 206.172 248.622Z" fill="#F2BF00"/>
<path d="M211.536 249.702C210.811 250.357 209.951 250.845 209.016 251.13C208.977 251.074 208.945 251.014 208.92 250.95C208.716 250.41 209.166 249.75 209.916 249.45C210.18 249.322 210.476 249.278 210.765 249.323C211.055 249.368 211.324 249.5 211.536 249.702Z" fill="#F2BF00"/>
<path d="M205.98 244.86C206.382 245.31 206.1 246.216 205.38 246.888C205.156 247.133 204.872 247.314 204.556 247.414C204.24 247.514 203.904 247.529 203.58 247.458C203.68 246.84 203.947 246.261 204.354 245.785C204.76 245.309 205.289 244.954 205.884 244.758C205.923 244.785 205.956 244.819 205.98 244.86Z" fill="#F2BF00"/>
<path d="M209.4 244.722C209.418 244.662 209.447 244.605 209.484 244.554C210.215 244.699 210.909 244.991 211.524 245.412C211.399 245.633 211.194 245.799 210.951 245.875C210.708 245.95 210.445 245.931 210.216 245.82C209.628 245.634 209.262 245.142 209.4 244.722Z" fill="#F2BF00"/>
<path d="M207.851 247.864C208.619 247.843 209.23 247.381 209.215 246.831C209.2 246.281 208.565 245.852 207.797 245.873C207.028 245.894 206.417 246.357 206.432 246.907C206.447 247.456 207.082 247.885 207.851 247.864Z" fill="#F2BF00"/>
<path d="M211.26 248.46C210.774 248.616 210.294 248.46 210.192 248.166C210.09 247.872 210.39 247.458 210.876 247.302C211.362 247.146 211.836 247.272 211.944 247.59C212.052 247.908 211.74 248.298 211.26 248.46Z" fill="#F2BF00"/>
<path d="M189.234 251.4C189.234 251.4 190.5 238.53 185.412 227.694C189.96 231.72 193.986 244.908 192.144 251.4H189.234Z" fill="#F2BF00"/>
<path d="M187.254 251.4C187.254 251.4 188.928 242.136 183.12 234C187.92 236.748 192 246.18 190.158 251.4H187.254Z" fill="#F2BF00"/>
<path d="M193.476 251.4C193.476 251.4 192.462 242.136 195.972 234C193.068 236.748 190.602 246.186 191.718 251.4H193.476Z" fill="#F2BF00"/>
<path d="M232.506 251.4C232.49 249.645 232.839 247.906 233.53 246.293C234.221 244.68 235.239 243.228 236.52 242.028C232.83 243.624 229.128 248.832 230.262 251.4H232.506Z" fill="#F2BF00"/>
<path d="M229.236 251.4C229.561 250.241 229.626 249.024 229.427 247.836C229.228 246.649 228.769 245.52 228.084 244.53C230.202 245.616 231.684 249.33 230.592 251.4H229.236Z" fill="#F2BF00"/>
<defs>
<clipPath id="clip0_88_3760">
<rect width="7" height="13" rx="1" transform="matrix(1 0 -0.48313 0.875549 173.281 162)" fill="white"/>
</clipPath>
</defs>
</svg>
