<svg width="300" height="300" viewBox="0 0 300 300" fill="none" xmlns="http://www.w3.org/2000/svg">
<path d="M300 229.44H0V229.59H300V229.44Z" fill="#EBEBEB"/>
<path d="M233.07 233.946H213.198V234.096H233.07V233.946Z" fill="#EBEBEB"/>
<path d="M181.2 239.022H154.782V239.172H181.2V239.022Z" fill="#EBEBEB"/>
<path d="M260.544 239.514H233.676V239.664H260.544V239.514Z" fill="#EBEBEB"/>
<path d="M58.1281 233.796H32.2141V233.946H58.1281V233.796Z" fill="#EBEBEB"/>
<path d="M67.2721 233.796H63.4741V233.946H67.2721V233.796Z" fill="#EBEBEB"/>
<path d="M135.828 236.328H79.6201V236.478H135.828V236.328Z" fill="#EBEBEB"/>
<path d="M142.2 202.68H26.346C25.4384 202.678 24.5686 202.317 23.9274 201.674C23.2862 201.032 22.926 200.162 22.926 199.254V36.396C22.9339 35.4936 23.2975 34.6308 23.9379 33.9949C24.5782 33.3591 25.4436 33.0015 26.346 33H142.2C143.109 33 143.98 33.361 144.623 34.0035C145.265 34.646 145.626 35.5174 145.626 36.426V199.254C145.626 200.163 145.265 201.034 144.623 201.677C143.98 202.319 143.109 202.68 142.2 202.68ZM26.346 33.12C25.4782 33.1216 24.6465 33.4674 24.0334 34.0816C23.4204 34.6958 23.076 35.5282 23.076 36.396V199.254C23.076 200.122 23.4204 200.954 24.0334 201.568C24.6465 202.183 25.4782 202.528 26.346 202.53H142.2C143.068 202.528 143.901 202.183 144.515 201.569C145.129 200.955 145.474 200.122 145.476 199.254V36.396C145.474 35.5276 145.129 34.6953 144.515 34.0813C143.901 33.4672 143.068 33.1216 142.2 33.12H26.346Z" fill="#EBEBEB"/>
<path d="M271.986 202.68H156.126C155.218 202.678 154.347 202.317 153.705 201.675C153.063 201.033 152.702 200.162 152.7 199.254V36.396C152.709 35.4931 153.074 34.6302 153.716 33.9946C154.357 33.3589 155.223 33.0015 156.126 33H271.986C272.887 33.0031 273.751 33.3613 274.39 33.997C275.029 34.6327 275.392 35.4947 275.4 36.396V199.254C275.4 200.161 275.041 201.03 274.401 201.672C273.761 202.314 272.892 202.677 271.986 202.68ZM156.126 33.12C155.258 33.1216 154.425 33.4672 153.811 34.0813C153.197 34.6953 152.852 35.5276 152.85 36.396V199.254C152.852 200.122 153.197 200.955 153.811 201.569C154.425 202.183 155.258 202.528 156.126 202.53H271.986C272.854 202.528 273.687 202.183 274.301 201.569C274.915 200.955 275.26 200.122 275.262 199.254V36.396C275.26 35.5276 274.915 34.6953 274.301 34.0813C273.687 33.4672 272.854 33.1216 271.986 33.12H156.126Z" fill="#EBEBEB"/>
<path d="M205.032 150.588H261.108V47.49H205.032V150.588Z" fill="#E6E6E6"/>
<path d="M198.636 150.588H259.578V47.49L198.636 47.49V150.588Z" fill="#F0F0F0"/>
<path d="M254.478 145.476V52.59H203.748V145.476H254.478Z" fill="white"/>
<path d="M76.3741 51.66H32.2141V102.984H76.3741V51.66Z" fill="#E0E0E0"/>
<path d="M79.014 51.66H33.708V102.984H79.014V51.66Z" fill="#F5F5F5"/>
<path d="M75.2161 98.94V55.704H37.5001V98.94H75.2161Z" fill="white"/>
<path d="M138.318 81.618H94.158V132.942H138.318V81.618Z" fill="#E0E0E0"/>
<path d="M140.958 81.618H95.6521V132.942H140.958V81.618Z" fill="#F5F5F5"/>
<path d="M137.16 128.904V85.668H99.4439V128.904H137.16Z" fill="white"/>
<path d="M113.07 175.686C112.77 175.686 112.47 175.686 112.158 175.716C110.244 175.853 108.383 176.412 106.71 177.351C105.037 178.291 103.592 179.589 102.478 181.153C101.365 182.716 100.611 184.506 100.27 186.395C99.929 188.283 100.01 190.224 100.506 192.078C101.928 197.612 102.614 203.309 102.546 209.022V225.666C102.546 225.953 102.603 226.238 102.713 226.503C102.823 226.769 102.984 227.01 103.188 227.212C103.391 227.415 103.633 227.576 103.898 227.686C104.164 227.795 104.449 227.851 104.736 227.85H157.536V175.686H113.07Z" fill="#F0F0F0"/>
<path d="M170.562 188.7C170.487 185.376 169.141 182.207 166.802 179.844C164.463 177.48 161.307 176.103 157.984 175.994C154.661 175.885 151.422 177.052 148.933 179.257C146.444 181.462 144.893 184.536 144.6 187.848C144.51 189.273 144.652 190.704 145.02 192.084C146.439 197.618 147.125 203.315 147.06 209.028V225.672C147.06 226.251 147.29 226.807 147.7 227.216C148.109 227.626 148.665 227.856 149.244 227.856H165.924C166.503 227.856 167.059 227.626 167.468 227.216C167.878 226.807 168.108 226.251 168.108 225.672V208.056C168.059 202.695 168.737 197.352 170.124 192.174C170.426 191.041 170.573 189.872 170.562 188.7Z" fill="#F5F5F5"/>
<path d="M139.626 196.182H92.2141V227.856H139.626V196.182Z" fill="#F0F0F0"/>
<path d="M98.2199 151.32H54.4559C49.0139 151.32 45.3179 155.73 46.1999 161.166L53.0279 203.34H116.49L109.662 161.166C108.78 155.73 103.656 151.32 98.2199 151.32Z" fill="#EBEBEB"/>
<path d="M111.09 151.32H66.3779C61.1999 151.32 57.6839 155.52 58.5239 160.692L65.4299 203.34H128.886L121.98 160.692C121.14 155.52 116.268 151.32 111.09 151.32Z" fill="#F5F5F5"/>
<path d="M95.3161 193.29H139.02C139.778 193.29 140.504 193.591 141.04 194.127C141.575 194.662 141.876 195.389 141.876 196.146V203.346C141.876 204.104 141.575 204.83 141.04 205.366C140.504 205.901 139.778 206.202 139.02 206.202H95.3161C95.0901 206.202 94.8734 206.112 94.7137 205.952C94.5539 205.793 94.4641 205.576 94.4641 205.35V194.142C94.4641 193.916 94.5539 193.699 94.7137 193.54C94.8734 193.38 95.0901 193.29 95.3161 193.29Z" fill="#EBEBEB"/>
<path d="M48.3541 175.686C48.0541 175.686 47.7541 175.686 47.4421 175.716C44.3116 175.953 41.3712 177.309 39.1596 179.537C36.948 181.765 35.6133 184.716 35.4001 187.848C35.31 189.273 35.4518 190.704 35.8201 192.084C37.2419 197.618 37.9278 203.315 37.8601 209.028V225.672C37.8601 226.251 38.0902 226.807 38.4997 227.216C38.9093 227.626 39.4648 227.856 40.0441 227.856H92.8441V175.686H48.3541Z" fill="#F0F0F0"/>
<path d="M105.846 188.7C105.844 186.849 105.447 185.019 104.681 183.334C103.916 181.649 102.799 180.146 101.406 178.927C100.013 177.708 98.3762 176.8 96.6044 176.264C94.8326 175.728 92.9667 175.576 91.1316 175.819C89.2964 176.062 87.5343 176.693 85.9628 177.672C84.3914 178.65 83.0468 179.953 82.0191 181.492C80.9913 183.032 80.304 184.773 80.0031 186.6C79.7022 188.426 79.7946 190.296 80.2741 192.084C81.6929 197.618 82.3788 203.315 82.3141 209.028V225.672C82.3141 226.251 82.5442 226.807 82.9537 227.216C83.3633 227.626 83.9188 227.856 84.4981 227.856H101.178C101.757 227.856 102.313 227.626 102.722 227.216C103.132 226.807 103.362 226.251 103.362 225.672V208.056C103.314 202.696 103.99 197.353 105.372 192.174C105.689 191.043 105.848 189.874 105.846 188.7Z" fill="#F5F5F5"/>
<path d="M156.6 229.44H49.284C48.8638 229.44 48.461 229.273 48.1639 228.976C47.8668 228.679 47.7 228.276 47.7 227.856H158.208C158.208 228.066 158.166 228.274 158.085 228.468C158.004 228.661 157.885 228.837 157.736 228.985C157.586 229.132 157.408 229.248 157.214 229.326C157.019 229.405 156.81 229.443 156.6 229.44Z" fill="#E0E0E0"/>
<path d="M272.244 205.026H246.42V207.144H272.244V205.026Z" fill="#E6E6E6"/>
<path d="M197.712 229.44H202.482V180.678H197.712V229.44Z" fill="#E6E6E6"/>
<path d="M181.2 207.15H246.42V205.032H181.2V207.15Z" fill="#F5F5F5"/>
<path d="M272.244 216.624H246.42V218.742H272.244V216.624Z" fill="#E6E6E6"/>
<path d="M181.2 218.742H246.42V216.624H181.2V218.742Z" fill="#F5F5F5"/>
<path d="M272.244 181.836H246.42V183.954H272.244V181.836Z" fill="#E6E6E6"/>
<path d="M181.2 183.96H246.42V181.842H181.2V183.96Z" fill="#F5F5F5"/>
<path d="M272.244 193.434H246.42V195.552H272.244V193.434Z" fill="#E6E6E6"/>
<path d="M181.2 195.552H246.42V193.434H181.2V195.552Z" fill="#F5F5F5"/>
<path d="M262.932 229.44H267.702V180.678H262.932V229.44Z" fill="#E6E6E6"/>
<path d="M241.65 229.44H246.42V180.678H241.65V229.44Z" fill="#F5F5F5"/>
<path d="M181.2 229.44H185.97V180.678H181.2V229.44Z" fill="#F5F5F5"/>
<path d="M228.108 180.108H230.658V151.674H228.108V180.108Z" fill="#E6E6E6"/>
<path d="M228.438 180.084H229.158V151.65H228.438V180.084Z" fill="#F0F0F0"/>
<path d="M219.936 181.836H238.8C238.8 181.2 238.547 180.589 238.097 180.139C237.647 179.689 237.036 179.436 236.4 179.436H222.318C221.681 179.436 221.071 179.689 220.621 180.139C220.171 180.589 219.918 181.2 219.918 181.836H219.936Z" fill="#F0F0F0"/>
<path d="M225.126 181.134H226.08C226.222 181.134 226.338 181.019 226.338 180.876V178.89C226.338 178.748 226.222 178.632 226.08 178.632H225.126C224.983 178.632 224.868 178.748 224.868 178.89V180.876C224.868 181.019 224.983 181.134 225.126 181.134Z" fill="#F0F0F0"/>
<path d="M217.962 158.4H240.804L238.62 140.184C238.498 139.155 238.003 138.207 237.229 137.518C236.456 136.829 235.456 136.448 234.42 136.446H224.358C223.323 136.45 222.324 136.832 221.551 137.521C220.778 138.209 220.282 139.156 220.158 140.184L217.962 158.4Z" fill="#F5F5F5"/>
<path d="M150 256.536C214.249 256.536 266.334 253.495 266.334 249.744C266.334 245.993 214.249 242.952 150 242.952C85.7505 242.952 33.666 245.993 33.666 249.744C33.666 253.495 85.7505 256.536 150 256.536Z" fill="#F5F5F5"/>
<path d="M177.426 97.4221L177.216 98.1301L177.024 98.7301C176.892 99.1321 176.748 99.5041 176.604 99.8881C176.316 100.638 176.004 101.37 175.662 102.096C174.996 103.54 174.245 104.942 173.412 106.296C172.998 106.974 172.56 107.628 172.116 108.282C171.672 108.936 171.198 109.566 170.7 110.184C169.724 111.433 168.676 112.625 167.562 113.754L167.328 113.994C167.005 114.325 166.623 114.592 166.2 114.78C164.95 115.327 163.591 115.579 162.228 115.518C161.041 115.454 159.875 115.18 158.784 114.708C157.87 114.322 157.005 113.826 156.21 113.232C155.496 112.711 154.821 112.139 154.188 111.522C153.039 110.372 152.002 109.114 151.092 107.766C150.648 107.118 150.24 106.452 149.85 105.78C149.46 105.108 149.124 104.436 148.758 103.662C148.519 103.158 148.464 102.586 148.601 102.045C148.738 101.504 149.06 101.028 149.51 100.698C149.96 100.369 150.511 100.207 151.068 100.239C151.625 100.272 152.154 100.498 152.562 100.878L152.718 101.022L154.182 102.366C154.68 102.822 155.19 103.26 155.7 103.68C156.666 104.499 157.688 105.249 158.76 105.924C159.598 106.483 160.529 106.889 161.508 107.124C161.757 107.194 162.021 107.194 162.27 107.124C162.353 107.087 162.42 107.024 162.462 106.944L161.082 107.988C161.844 106.956 162.582 105.912 163.26 104.832C163.938 103.752 164.586 102.636 165.192 101.514C165.798 100.392 166.356 99.2341 166.872 98.0761C167.136 97.4761 167.37 96.9121 167.61 96.3361L168.21 94.7641L168.378 94.3321C168.857 93.2254 169.735 92.3395 170.837 91.8506C171.94 91.3618 173.186 91.3057 174.327 91.6936C175.469 92.0815 176.423 92.8849 176.999 93.9441C177.576 95.0033 177.732 96.2407 177.438 97.4101L177.426 97.4221Z" fill="#263238"/>
<path d="M150.456 103.692L146.4 102.282L145.548 96.7261C145.548 96.7261 152.346 98.5261 152.316 101.802L150.456 103.692Z" fill="#CE7A63"/>
<path d="M174.348 74.748C171.702 73.818 168.048 70.65 169.482 66.552C170.574 63.444 174.618 63.168 176.208 64.098C177.798 65.028 177.864 63.12 179.898 62.388C181.932 61.656 183.366 63.498 184.398 64.464C185.43 65.43 186.636 64.698 188.166 64.764C189.696 64.83 190.788 66.834 189.936 68.298C188.436 70.866 190.914 72.498 189.036 74.502C186.27 77.412 188.436 80.268 184.536 83.166C182.166 84.942 175.434 81.684 174.348 74.748Z" fill="#263238"/>
<path d="M174.3 77.4601C174.202 77.5188 174.091 77.5537 173.976 77.5621C173.777 77.5787 173.58 77.5162 173.427 77.3881C173.274 77.26 173.178 77.0767 173.16 76.8781C173.028 75.6873 173.184 74.4823 173.614 73.3641C174.044 72.2459 174.736 71.2473 175.632 70.4521C175.71 70.3903 175.799 70.3446 175.894 70.3178C175.99 70.291 176.09 70.2835 176.188 70.2958C176.286 70.3081 176.381 70.3399 176.467 70.3894C176.553 70.4389 176.628 70.5051 176.688 70.5841C176.75 70.6612 176.796 70.7497 176.823 70.8446C176.85 70.9395 176.859 71.0389 176.847 71.137C176.836 71.2351 176.806 71.33 176.758 71.4164C176.71 71.5027 176.646 71.5787 176.568 71.6401C175.867 72.2779 175.329 73.0742 174.998 73.9624C174.667 74.8506 174.553 75.805 174.666 76.7461C174.678 76.8874 174.65 77.0294 174.586 77.1556C174.521 77.2819 174.422 77.3874 174.3 77.4601Z" fill="#263238"/>
<path d="M169.986 91.4221C169.986 91.4221 164.664 105.042 169.716 130.422H193.842C194.01 126.72 191.682 108.654 195.252 91.2061C192.585 90.6931 189.887 90.3524 187.176 90.1861C183.761 89.9879 180.337 89.9879 176.922 90.1861C174.581 90.4157 172.262 90.8289 169.986 91.4221Z" fill="white"/>
<path d="M186.162 78.6C185.514 81.9 184.872 87.948 187.176 90.15C187.176 90.15 183.312 93.282 179.25 96.45C178.352 95.6891 177.666 94.7094 177.259 93.6057C176.851 92.502 176.735 91.3117 176.922 90.15C180.6 89.274 180.522 86.55 179.868 83.976L186.162 78.6Z" fill="#CE7A63"/>
<path opacity="0.2" d="M183.6 80.814L179.874 83.994C180.033 84.5834 180.139 85.1857 180.192 85.794C181.392 86.934 183.528 84.048 183.678 82.578C183.757 81.99 183.731 81.3926 183.6 80.814Z" fill="black"/>
<path d="M186.12 73.05C186.288 77.526 186.612 80.136 184.596 82.65C181.554 86.418 175.866 84.924 174.366 80.586C173.016 76.686 172.968 70.026 177.15 67.83C178.068 67.341 179.095 67.0945 180.134 67.1139C181.174 67.1333 182.191 67.4179 183.089 67.9408C183.988 68.4637 184.738 69.2075 185.268 70.1017C185.799 70.9959 186.092 72.0107 186.12 73.05Z" fill="#CE7A63"/>
<path d="M186 77.1901C184.77 79.5901 183.354 72.0001 183.714 70.7341C179.364 71.9341 172.692 71.5381 173.208 68.5021C173.808 65.0761 177.792 64.9441 182.208 65.3641C189.498 66.0661 187.332 74.5861 186 77.1901Z" fill="#263238"/>
<path d="M183.846 77.6161C183.733 77.6226 183.62 77.602 183.516 77.5561C183.425 77.5163 183.343 77.459 183.274 77.3874C183.205 77.3158 183.151 77.2314 183.115 77.1389C183.078 77.0464 183.061 76.9477 183.063 76.8483C183.065 76.749 183.086 76.6511 183.126 76.5601C183.58 75.4518 184.293 74.4685 185.205 73.6928C186.118 72.9172 187.203 72.3716 188.37 72.1021C188.565 72.067 188.766 72.1104 188.929 72.2228C189.092 72.3352 189.203 72.5075 189.24 72.7021C189.272 72.8965 189.227 73.0958 189.115 73.258C189.003 73.4202 188.833 73.5328 188.64 73.5721C187.717 73.8004 186.861 74.2463 186.145 74.8725C185.429 75.4988 184.873 76.2872 184.524 77.1721C184.467 77.3042 184.372 77.4166 184.251 77.4955C184.131 77.5744 183.99 77.6163 183.846 77.6161Z" fill="#263238"/>
<path d="M188.352 76.2C188.115 77.278 187.492 78.232 186.6 78.882C185.43 79.698 184.506 78.696 184.536 77.286C184.566 76.02 185.214 74.076 186.522 73.824C187.83 73.572 188.646 74.874 188.352 76.2Z" fill="#CE7A63"/>
<path d="M167.268 243.822C166.71 243.96 166.152 244.014 165.912 243.822C165.851 243.765 165.809 243.691 165.791 243.609C165.774 243.528 165.783 243.443 165.816 243.366C165.837 243.297 165.871 243.233 165.918 243.179C165.964 243.124 166.021 243.079 166.086 243.048C166.764 242.67 168.486 243.162 168.564 243.186C168.586 243.192 168.606 243.204 168.62 243.222C168.634 243.24 168.642 243.262 168.642 243.285C168.642 243.308 168.634 243.33 168.62 243.348C168.606 243.366 168.586 243.379 168.564 243.384C168.146 243.567 167.712 243.714 167.268 243.822ZM166.38 243.144C166.313 243.16 166.249 243.184 166.188 243.216C166.149 243.235 166.113 243.262 166.084 243.295C166.056 243.328 166.034 243.366 166.02 243.408C165.972 243.558 166.02 243.612 166.05 243.642C166.32 243.876 167.424 243.612 168.21 243.294C167.615 243.127 166.994 243.076 166.38 243.144Z" fill="#263238"/>
<path d="M168.558 243.372H168.516C167.916 243.27 166.668 242.58 166.632 242.064C166.632 241.944 166.674 241.776 166.95 241.68C167.147 241.613 167.363 241.626 167.55 241.716C168.21 242.034 168.6 243.186 168.618 243.234C168.628 243.25 168.634 243.269 168.634 243.288C168.634 243.307 168.628 243.326 168.618 243.342C168.602 243.358 168.581 243.368 168.558 243.372ZM167.082 241.86H167.022C166.836 241.92 166.842 241.998 166.848 242.022C166.848 242.334 167.748 242.898 168.36 243.09C168.196 242.607 167.886 242.188 167.472 241.89C167.349 241.837 167.212 241.826 167.082 241.86Z" fill="#263238"/>
<path d="M175.116 244.8L170.598 245.466L170.742 235.11L175.26 234.45L175.116 244.8Z" fill="#CE7A63"/>
<path d="M169.92 242.79H175.842C175.929 242.788 176.014 242.818 176.08 242.874C176.147 242.931 176.19 243.01 176.202 243.096L176.802 247.086C176.814 247.186 176.804 247.288 176.774 247.384C176.744 247.48 176.694 247.569 176.627 247.644C176.56 247.719 176.478 247.78 176.386 247.821C176.294 247.862 176.195 247.884 176.094 247.884C174.324 247.854 171.78 247.752 169.554 247.752C166.956 247.752 164.622 247.89 161.574 247.89C159.732 247.89 159.39 246.144 160.152 245.862C163.56 244.584 165.384 244.368 168.834 243.138C169.174 242.963 169.541 242.845 169.92 242.79Z" fill="#263238"/>
<path opacity="0.2" d="M170.742 235.116L170.664 240.45L175.188 239.784L175.266 234.45L170.742 235.116Z" fill="black"/>
<path d="M172.8 243.108C172.77 241.194 173.37 238.116 168.6 240C165.756 241.116 169.614 244.398 169.614 244.398L172.8 243.108Z" fill="#263238"/>
<path d="M169.716 130.404C169.716 130.404 167.316 166.746 167.994 179.67C168.654 191.916 169.026 226.656 169.11 235.77C169.113 236.047 169.176 236.32 169.293 236.572C169.41 236.823 169.579 237.046 169.789 237.227C169.999 237.408 170.244 237.543 170.51 237.621C170.776 237.7 171.055 237.721 171.33 237.684L174.522 237.252C174.948 237.194 175.343 236.997 175.647 236.693C175.95 236.388 176.145 235.992 176.202 235.566C178.266 219.48 180.72 194.664 181.254 181.38C181.854 166.218 185.586 130.38 185.586 130.38L169.716 130.404Z" fill="#F2BF00"/>
<path opacity="0.2" d="M169.716 130.404C169.716 130.404 167.316 166.746 167.994 179.67C168.654 191.916 169.026 226.656 169.11 235.77C169.113 236.047 169.176 236.32 169.293 236.572C169.41 236.823 169.579 237.046 169.789 237.227C169.999 237.408 170.244 237.543 170.51 237.621C170.776 237.7 171.055 237.721 171.33 237.684L174.522 237.252C174.948 237.194 175.343 236.997 175.647 236.693C175.95 236.388 176.145 235.992 176.202 235.566C178.266 219.48 180.72 194.664 181.254 181.38C181.854 166.218 185.586 130.38 185.586 130.38L169.716 130.404Z" fill="white"/>
<path d="M199.836 243.228C199.314 243.462 198.774 243.618 198.498 243.456C198.428 243.413 198.373 243.348 198.341 243.271C198.31 243.195 198.304 243.11 198.324 243.03C198.33 242.957 198.353 242.887 198.389 242.824C198.425 242.761 198.475 242.706 198.534 242.664C199.134 242.172 200.934 242.352 200.994 242.358C201.016 242.36 201.037 242.368 201.054 242.382C201.071 242.396 201.084 242.415 201.09 242.436C201.094 242.457 201.093 242.479 201.085 242.499C201.078 242.519 201.065 242.537 201.048 242.55C200.665 242.812 200.259 243.039 199.836 243.228ZM198.84 242.718C198.778 242.748 198.72 242.784 198.666 242.826C198.629 242.851 198.598 242.884 198.575 242.922C198.553 242.961 198.538 243.004 198.534 243.048C198.534 243.198 198.57 243.252 198.606 243.27C198.912 243.456 199.95 242.994 200.67 242.55C200.055 242.488 199.433 242.545 198.84 242.718Z" fill="#263238"/>
<path d="M201 242.562C200.4 242.562 199.044 242.112 198.918 241.608C198.888 241.494 198.918 241.32 199.164 241.176C199.254 241.124 199.353 241.09 199.457 241.078C199.56 241.066 199.664 241.075 199.764 241.104C200.472 241.302 201.066 242.358 201.09 242.406C201.099 242.423 201.104 242.441 201.104 242.46C201.104 242.479 201.099 242.497 201.09 242.514C201.079 242.528 201.065 242.539 201.05 242.547C201.034 242.555 201.017 242.56 201 242.562ZM199.278 241.362H199.224C199.056 241.458 199.074 241.53 199.08 241.554C199.158 241.854 200.124 242.256 200.76 242.34C200.514 241.891 200.135 241.53 199.674 241.308C199.55 241.275 199.419 241.286 199.302 241.338L199.278 241.362Z" fill="#263238"/>
<path d="M207.996 242.826L203.736 244.272L200.91 234.258L205.164 232.812L207.996 242.826Z" fill="#CE7A63"/>
<path opacity="0.2" d="M180.912 143.4C179.67 148.374 180 169.044 181.284 180.696C181.59 173.874 182.454 163.356 183.33 153.696L180.912 143.4Z" fill="black"/>
<path d="M202.098 241.842L207.93 240.792C208.017 240.775 208.108 240.789 208.186 240.831C208.264 240.874 208.324 240.943 208.356 241.026L209.886 244.806C209.923 244.898 209.94 244.997 209.934 245.096C209.927 245.195 209.899 245.291 209.851 245.377C209.802 245.464 209.735 245.538 209.654 245.595C209.573 245.652 209.48 245.69 209.382 245.706C207.636 245.994 205.104 246.342 202.914 246.738C200.358 247.2 200.34 247.338 197.34 247.89C195.54 248.22 194.766 246.582 195.444 246.168C198.492 244.32 197.994 244.194 201.09 242.382C201.392 242.144 201.733 241.962 202.098 241.842Z" fill="#263238"/>
<path opacity="0.2" d="M200.91 234.264L202.368 239.424L206.628 237.978L205.17 232.818L200.91 234.264Z" fill="black"/>
<path d="M178.278 130.404C178.278 130.404 181.386 166.752 183.78 179.67C186.084 192.102 196.506 227.514 199.578 235.56C199.757 236.03 200.11 236.412 200.564 236.628C201.017 236.844 201.537 236.876 202.014 236.718L205.092 235.716C205.544 235.568 205.927 235.261 206.169 234.851C206.411 234.441 206.495 233.957 206.406 233.49C203.346 217.692 198.474 194.604 197.262 181.38C195.876 166.218 193.842 130.38 193.842 130.38L178.278 130.404Z" fill="#F2BF00"/>
<path opacity="0.2" d="M178.278 130.404C178.278 130.404 181.386 166.752 183.78 179.67C186.084 192.102 196.506 227.514 199.578 235.56C199.757 236.03 200.11 236.412 200.564 236.628C201.017 236.844 201.537 236.876 202.014 236.718L205.092 235.716C205.544 235.568 205.927 235.261 206.169 234.851C206.411 234.441 206.495 233.957 206.406 233.49C203.346 217.692 198.474 194.604 197.262 181.38C195.876 166.218 193.842 130.38 193.842 130.38L178.278 130.404Z" fill="white"/>
<path d="M179.502 74.958C179.538 75.324 179.376 75.636 179.136 75.66C178.896 75.684 178.68 75.408 178.644 75.06C178.608 74.712 178.77 74.388 179.01 74.364C179.25 74.34 179.466 74.598 179.502 74.958Z" fill="#263238"/>
<path d="M175.41 75.3661C175.446 75.7261 175.284 76.0381 175.044 76.0621C174.804 76.0861 174.588 75.8101 174.552 75.4621C174.516 75.1141 174.678 74.7841 174.918 74.7601C175.158 74.7361 175.374 75.0001 175.41 75.3661Z" fill="#263238"/>
<path d="M176.73 75.4141C176.407 76.5646 175.926 77.665 175.302 78.6841C175.567 78.836 175.863 78.9281 176.167 78.954C176.472 78.9799 176.779 78.939 177.066 78.8341L176.73 75.4141Z" fill="#BA4D3C"/>
<path d="M178.2 79.734C178.172 79.7357 178.145 79.7267 178.124 79.7088C178.103 79.6909 178.089 79.6656 178.086 79.638C178.084 79.6238 178.085 79.6094 178.089 79.5957C178.093 79.5819 178.1 79.5691 178.109 79.5579C178.118 79.5468 178.129 79.5375 178.141 79.5306C178.154 79.5238 178.168 79.5195 178.182 79.518C178.633 79.4845 179.07 79.3447 179.457 79.1101C179.844 78.8755 180.17 78.5527 180.408 78.168C180.421 78.1427 180.443 78.1234 180.47 78.1144C180.497 78.1054 180.526 78.1074 180.552 78.12C180.576 78.1339 180.595 78.1563 180.603 78.1828C180.612 78.2094 180.611 78.2383 180.6 78.264C180.347 78.6832 179.997 79.0355 179.579 79.2913C179.161 79.5471 178.688 79.6989 178.2 79.734Z" fill="#263238"/>
<path d="M180.6 73.5181C180.567 73.5208 180.534 73.5163 180.503 73.5049C180.472 73.4935 180.444 73.4755 180.42 73.4521C180.246 73.2451 180.025 73.0827 179.776 72.9783C179.526 72.874 179.256 72.8307 178.986 72.8521C178.931 72.8608 178.874 72.8475 178.828 72.815C178.782 72.7825 178.75 72.7334 178.74 72.6781C178.735 72.6504 178.735 72.6221 178.741 72.5946C178.747 72.5672 178.759 72.5412 178.775 72.5183C178.791 72.4953 178.812 72.4759 178.836 72.4611C178.86 72.4463 178.886 72.4364 178.914 72.4321C179.248 72.3969 179.586 72.4423 179.899 72.5645C180.213 72.6866 180.492 72.8819 180.714 73.1341C180.735 73.1537 180.752 73.1774 180.763 73.2037C180.774 73.23 180.78 73.2584 180.78 73.2871C180.78 73.3157 180.774 73.3441 180.763 73.3704C180.752 73.3967 180.735 73.4204 180.714 73.4401C180.685 73.4767 180.645 73.5038 180.6 73.5181Z" fill="#263238"/>
<path d="M173.43 74.094C173.398 74.1003 173.366 74.1003 173.334 74.094C173.283 74.0704 173.243 74.0277 173.223 73.975C173.202 73.9223 173.204 73.8638 173.226 73.812C173.356 73.4995 173.559 73.2227 173.818 73.0046C174.077 72.7865 174.384 72.6333 174.714 72.558C174.744 72.5477 174.775 72.544 174.806 72.5471C174.838 72.5502 174.868 72.56 174.895 72.576C174.922 72.5919 174.945 72.6136 174.963 72.6394C174.981 72.6652 174.993 72.6946 174.998 72.7255C175.003 72.7564 175.002 72.7881 174.994 72.8184C174.985 72.8487 174.971 72.8768 174.95 72.9009C174.93 72.9249 174.905 72.9442 174.877 72.9576C174.848 72.9709 174.817 72.9779 174.786 72.978C174.525 73.0416 174.283 73.1661 174.08 73.3413C173.876 73.5165 173.717 73.7375 173.616 73.986C173.598 74.0191 173.571 74.0466 173.538 74.0656C173.505 74.0847 173.468 74.0945 173.43 74.094Z" fill="#263238"/>
<path d="M187.8 89.4C190.152 89.4 195.822 89.526 196.374 91.626C196.926 93.726 196.32 97.128 195.57 99.126C196.674 102.174 196.32 106.674 195.27 108.078C196.422 111.474 195.672 113.976 194.97 115.176C195.522 116.526 196.02 120.378 195.174 122.274C195.87 124.974 196.668 129.474 195.42 130.38C193.722 131.58 189.204 132.18 186.012 131.424C182.82 130.668 184.074 124.224 184.32 122.724C182.922 120.876 184.422 115.326 184.422 115.326C183.72 113.778 184.77 107.976 184.77 107.976C183.924 106.578 185.022 98.976 185.022 98.976C184.11 97.452 183.714 89.4 187.8 89.4Z" fill="#263238"/>
<path d="M170.526 90.7981C172.374 89.9821 178.566 88.5001 177.366 90.1321C175.626 92.5021 176.694 94.9981 175.662 97.9321C176.574 100.734 176.262 105.312 175.416 106.932C176.167 109.282 176.091 111.819 175.2 114.12C175.65 115.32 176.064 119.082 175.362 121.17C175.962 123.714 176.418 128.844 175.362 130.002C174.602 130.839 173.595 131.412 172.486 131.638C171.378 131.863 170.227 131.73 169.2 131.256C167.73 130.656 167.076 125.748 167.802 124.056C166.374 120.942 167.538 116.328 167.538 116.328C166.158 113.928 167.226 108.894 167.226 108.894C165.858 104.43 167.538 99.4921 167.538 99.4921C166.8 98.1541 167.58 92.1001 170.526 90.7981Z" fill="#263238"/>
<path d="M174.6 91.35C174.354 91.1677 174.154 90.9308 174.016 90.658C173.877 90.3852 173.804 90.0839 173.802 89.778C173.797 89.5729 173.833 89.3689 173.907 89.1778C173.982 88.9866 174.093 88.8121 174.236 88.6643C174.378 88.5165 174.548 88.3983 174.736 88.3165C174.924 88.2348 175.127 88.1911 175.332 88.188C176.034 88.2463 176.717 88.4507 177.336 88.788C178.278 89.25 178.626 89.676 178.668 90.372C178.71 91.068 176.994 93.516 176.052 92.934C175.11 92.352 175.128 91.95 174.6 91.35Z" fill="#263238"/>
<path opacity="0.2" d="M192.804 99.93C193.272 97.908 194.46 98.088 195.642 98.916L195.558 99.15C196.662 102.198 196.308 106.698 195.258 108.102C195.324 108.294 195.384 108.486 195.438 108.702C193.968 107.262 191.928 103.746 192.804 99.93Z" fill="black"/>
<path d="M193.008 104.868L189.018 106.692L188.628 119.58L177.786 126.564L189.924 130.92L193.218 143.382L197.214 141.564L199.446 121.236L193.008 104.868Z" fill="#F2BF00"/>
<path opacity="0.3" d="M193.008 104.868L189.018 106.692L188.628 119.58L177.786 126.564L189.924 130.92L193.218 143.382L197.214 141.564L199.446 121.236L193.008 104.868Z" fill="black"/>
<path d="M217.98 132.084L213.984 133.908L201.108 133.188L206.496 129.552L217.98 132.084Z" fill="#F2BF00"/>
<path opacity="0.3" d="M217.98 132.084L213.984 133.908L201.108 133.188L206.496 129.552L217.98 132.084Z" fill="black"/>
<path d="M193.008 104.868L203.004 113.016L215.382 109.404L210.72 121.428L217.98 132.084L205.104 131.364L197.214 141.564L193.914 129.096L181.782 124.74L192.618 117.756L193.008 104.868Z" fill="#F2BF00"/>
<path d="M199.29 130.488L199.2 134.562L204 134.292C204 134.292 204.648 131.742 201.888 129.966L199.29 130.488Z" fill="#CE7A63"/>
<path d="M200.742 138.642L204.066 136.728L204.006 134.292L199.2 134.562L200.742 138.642Z" fill="#CE7A63"/>
<path d="M196.536 91.506C196.926 91.866 197.22 92.142 197.544 92.46C197.868 92.778 198.144 93.06 198.48 93.396C199.08 94.026 199.68 94.674 200.28 95.328C201.453 96.6704 202.557 98.0722 203.586 99.528C204.674 101.049 205.639 102.654 206.472 104.328C207.475 106.266 208.118 108.37 208.368 110.538C208.405 110.859 208.423 111.181 208.422 111.504V112.008V112.356L208.32 113.718C208.212 114.612 208.104 115.518 207.954 116.364C207.676 118.075 207.312 119.772 206.862 121.446C205.999 124.738 204.855 127.95 203.442 131.046C203.211 131.567 202.803 131.99 202.289 132.237C201.776 132.485 201.191 132.542 200.639 132.397C200.088 132.253 199.605 131.917 199.279 131.449C198.953 130.982 198.803 130.414 198.858 129.846V129.75C199.116 126.582 199.458 123.354 199.632 120.222C199.752 118.65 199.8 117.096 199.836 115.578C199.836 114.816 199.836 114.072 199.836 113.328L199.788 112.248V111.984V111.87C199.776 111.785 199.758 111.701 199.734 111.618C199.422 110.562 198.97 109.553 198.39 108.618C197.659 107.422 196.857 106.27 195.99 105.168C195.084 104.016 194.112 102.87 193.104 101.742C192.6 101.178 192.078 100.626 191.562 100.068L190.782 99.246L190.044 98.484L189.924 98.358C189.068 97.4578 188.595 96.2609 188.603 95.019C188.612 93.777 189.101 92.5866 189.969 91.698C190.837 90.8094 192.015 90.2916 193.256 90.2536C194.498 90.2156 195.705 90.6602 196.626 91.494L196.536 91.506Z" fill="#263238"/>
<path d="M189.6 90.822C190.2 90.738 190.356 89.334 189.876 88.422C189.486 87.672 188.076 87.7741 186.816 88.0981C185.802 88.324 184.831 88.7131 183.942 89.25C182.67 89.952 183.132 90.7981 183.426 91.4641C183.72 92.1301 184.278 93.66 185.478 92.85C186.678 92.04 188.76 90.948 189.6 90.822Z" fill="#263238"/>
<path d="M204.732 241.578C204.642 239.664 205.146 236.574 200.436 238.578C197.622 239.778 201.576 242.946 201.576 242.946L204.732 241.578Z" fill="#263238"/>
<path d="M145.74 92.4H152.184C152.363 92.4065 152.536 92.4674 152.68 92.5745C152.823 92.6817 152.931 92.8301 152.988 93L156.36 105C156.382 105.07 156.387 105.144 156.375 105.216C156.362 105.288 156.333 105.357 156.289 105.415C156.245 105.474 156.188 105.521 156.122 105.553C156.056 105.585 155.983 105.601 155.91 105.6H149.46C149.282 105.591 149.112 105.529 148.969 105.422C148.827 105.315 148.72 105.168 148.662 105L145.29 93C145.267 92.93 145.261 92.8555 145.272 92.7827C145.284 92.7099 145.314 92.641 145.358 92.5821C145.402 92.5231 145.46 92.4757 145.527 92.444C145.593 92.4123 145.666 92.3972 145.74 92.4Z" fill="#F2BF00"/>
<path d="M149.25 100.488L147.9 95.79L145.548 96.726L146.4 102.282L149.25 100.488Z" fill="#CE7A63"/>
<path opacity="0.3" d="M152.7 92.832C152.763 92.8358 152.824 92.8593 152.873 92.899C152.923 92.9388 152.959 92.993 152.976 93.054L156.354 105C156.364 105.025 156.368 105.052 156.365 105.078C156.362 105.105 156.352 105.13 156.337 105.152C156.321 105.174 156.3 105.191 156.276 105.202C156.251 105.213 156.225 105.218 156.198 105.216C156.135 105.214 156.075 105.191 156.025 105.153C155.976 105.114 155.94 105.06 155.922 105L152.556 93.036C152.55 93.013 152.549 92.9889 152.553 92.9654C152.557 92.9419 152.566 92.9196 152.58 92.9001C152.594 92.8806 152.612 92.8644 152.632 92.8527C152.653 92.8409 152.676 92.8338 152.7 92.832Z" fill="black"/>
<path d="M73.542 45.78H69V46.38H73.542V45.78Z" fill="#F2BF00"/>
<path d="M52.2001 52.584H51.6001C51.6017 50.7852 52.3149 49.06 53.5841 47.7852C54.8532 46.5104 56.5753 45.7895 58.3741 45.78H66.5341V46.38H58.3741C56.7344 46.3895 55.165 47.0472 54.0083 48.2094C52.8517 49.3717 52.2017 50.9443 52.2001 52.584Z" fill="#F2BF00"/>
<path d="M129.216 47.88H58.374C55.7794 47.88 53.676 49.9834 53.676 52.578V64.242C53.676 66.8366 55.7794 68.94 58.374 68.94H129.216C131.811 68.94 133.914 66.8366 133.914 64.242V52.578C133.914 49.9834 131.811 47.88 129.216 47.88Z" fill="#F2BF00"/>
<path d="M84.2102 55.2361L85.2422 57.3241L87.5522 57.6601L85.8782 59.2861L86.2742 61.5901L84.2102 60.5041L82.1462 61.5901L82.5422 59.2861L80.8682 57.6601L83.1782 57.3241L84.2102 55.2361Z" fill="white"/>
<path d="M93.582 55.2361L94.614 57.3241L96.924 57.6601L95.25 59.2861L95.646 61.5901L93.582 60.5041L91.518 61.5901L91.914 59.2861L90.24 57.6601L92.55 57.3241L93.582 55.2361Z" fill="white"/>
<path d="M102.954 55.2361L103.986 57.3241L106.296 57.6601L104.628 59.2861L105.018 61.5901L102.954 60.5041L100.89 61.5901L101.286 59.2861L99.6121 57.6601L101.922 57.3241L102.954 55.2361Z" fill="white"/>
<path d="M112.326 55.2361L113.358 57.3241L115.668 57.6601L114 59.2861L114.39 61.5901L112.326 60.5041L110.262 61.5901L110.658 59.2861L108.984 57.6601L111.294 57.3241L112.326 55.2361Z" fill="white"/>
<path opacity="0.3" d="M121.698 56.5921L122.19 57.5941C122.234 57.681 122.299 57.756 122.378 57.8125C122.457 57.8689 122.549 57.9052 122.646 57.9181L123.75 58.0801L122.952 58.8601C122.883 58.9275 122.831 59.0108 122.8 59.1027C122.77 59.1946 122.762 59.2926 122.778 59.3881L122.964 60.4921L121.98 60.0001C121.892 59.9578 121.796 59.9353 121.698 59.9341C121.602 59.9337 121.507 59.9563 121.422 60.0001L120.432 60.5221L120.6 59.4001C120.616 59.3045 120.608 59.2066 120.578 59.1147C120.548 59.0228 120.496 58.9395 120.426 58.8721L119.628 58.0921L120.732 57.9301C120.831 57.9184 120.926 57.8821 121.008 57.8245C121.09 57.7669 121.156 57.6897 121.2 57.6001L121.692 56.5981M121.692 55.2421L120.66 57.3301L118.35 57.6661L120.024 59.2981L119.628 61.5961L121.692 60.5101L123.756 61.5961L123.36 59.2981L125.034 57.6661L122.724 57.3301L121.692 55.2421Z" fill="white"/>
<path opacity="0.2" d="M68.31 65.616C72.2898 65.616 75.516 62.3897 75.516 58.41C75.516 54.4302 72.2898 51.204 68.31 51.204C64.3302 51.204 61.104 54.4302 61.104 58.41C61.104 62.3897 64.3302 65.616 68.31 65.616Z" fill="white"/>
<path d="M74.262 58.41C74.2636 59.734 73.8232 61.0207 73.0106 62.0661C72.198 63.1114 71.0598 63.8557 69.7764 64.1808C68.4929 64.506 67.1376 64.3935 65.9253 63.8611C64.713 63.3288 63.7131 62.4071 63.084 61.242C62.6086 60.374 62.3609 59.3997 62.364 58.41C62.4131 56.8649 63.0614 55.3996 64.1717 54.324C65.282 53.2484 66.7672 52.647 68.313 52.647C69.8589 52.647 71.3441 53.2484 72.4544 54.324C73.5647 55.3996 74.213 56.8649 74.262 58.41Z" fill="white"/>
<path d="M73.542 61.242C73.0333 62.1859 72.2786 62.9745 71.358 63.5242C70.4374 64.0738 69.3852 64.364 68.313 64.364C67.2408 64.364 66.1885 64.0738 65.2679 63.5242C64.3473 62.9745 63.5927 62.1859 63.084 61.242C64.6322 60.2089 66.4517 59.6575 68.313 59.6575C70.1743 59.6575 71.9938 60.2089 73.542 61.242Z" fill="#263238"/>
<path d="M70.9622 56.4C70.9622 56.9246 70.8067 57.4373 70.5153 57.8734C70.2239 58.3095 69.8097 58.6495 69.3251 58.8502C68.8405 59.0509 68.3073 59.1034 67.7928 59.0011C67.2784 58.8988 66.8058 58.6462 66.435 58.2753C66.0641 57.9044 65.8115 57.4319 65.7092 56.9174C65.6068 56.403 65.6593 55.8698 65.8601 55.3852C66.0608 54.9006 66.4007 54.4864 66.8368 54.195C67.273 53.9036 67.7857 53.748 68.3102 53.748C69.0136 53.748 69.6881 54.0275 70.1855 54.5248C70.6828 55.0221 70.9622 55.6967 70.9622 56.4Z" fill="#FFC3BD"/>
<path d="M124.332 121.068H112.326V121.668H124.332V121.068Z" fill="#F2BF00"/>
<path d="M129.216 98.5081H58.374C55.7794 98.5081 53.676 100.611 53.676 103.206V114.87C53.676 117.465 55.7794 119.568 58.374 119.568H129.216C131.811 119.568 133.914 117.465 133.914 114.87V103.206C133.914 100.611 131.811 98.5081 129.216 98.5081Z" fill="#F2BF00"/>
<path d="M84.2102 105.858L85.2422 107.952L87.5522 108.282L85.8782 109.914L86.2742 112.212L84.2102 111.126L82.1462 112.212L82.5422 109.914L80.8682 108.282L83.1782 107.952L84.2102 105.858Z" fill="white"/>
<path d="M93.582 105.858L94.614 107.952L96.924 108.282L95.25 109.914L95.646 112.212L93.582 111.126L91.518 112.212L91.914 109.914L90.24 108.282L92.55 107.952L93.582 105.858Z" fill="white"/>
<path d="M102.954 105.858L103.986 107.952L106.296 108.282L104.628 109.914L105.018 112.212L102.954 111.126L100.89 112.212L101.286 109.914L99.6121 108.282L101.922 107.952L102.954 105.858Z" fill="white"/>
<path d="M112.326 105.858L113.358 107.952L115.668 108.282L114 109.914L114.39 112.212L112.326 111.126L110.262 112.212L110.658 109.914L108.984 108.282L111.294 107.952L112.326 105.858Z" fill="white"/>
<path d="M121.698 105.858L122.73 107.952L125.04 108.282L123.372 109.914L123.762 112.212L121.698 111.126L119.634 112.212L120.03 109.914L118.356 108.282L120.666 107.952L121.698 105.858Z" fill="white"/>
<path opacity="0.2" d="M73.4095 114.133C76.2236 111.318 76.2236 106.756 73.4095 103.942C70.5954 101.128 66.0328 101.128 63.2187 103.942C60.4046 106.756 60.4046 111.318 63.2187 114.133C66.0328 116.947 70.5954 116.947 73.4095 114.133Z" fill="white"/>
<path d="M74.262 109.032C74.2649 110.357 73.8255 111.644 73.0134 112.69C72.2013 113.737 71.0631 114.482 69.7793 114.808C68.4955 115.134 67.1396 115.022 65.9267 114.49C64.7138 113.957 63.7134 113.035 63.084 111.87C62.6086 111 62.3609 110.024 62.364 109.032C62.4131 107.487 63.0614 106.022 64.1717 104.946C65.282 103.87 66.7672 103.269 68.313 103.269C69.8589 103.269 71.3441 103.87 72.4544 104.946C73.5647 106.022 74.213 107.487 74.262 109.032Z" fill="white"/>
<path opacity="0.5" d="M73.542 111.87C73.0319 112.812 72.2768 113.599 71.3563 114.147C70.4359 114.696 69.3844 114.985 68.313 114.985C67.2416 114.985 66.1901 114.696 65.2696 114.147C64.3492 113.599 63.594 112.812 63.084 111.87C64.6322 110.837 66.4517 110.285 68.313 110.285C70.1743 110.285 71.9938 110.837 73.542 111.87Z" fill="#F2BF00"/>
<path d="M70.9622 106.998C70.9634 107.523 70.8089 108.036 70.5182 108.473C70.2275 108.91 69.8137 109.251 69.3292 109.452C68.8448 109.654 68.3113 109.707 67.7965 109.606C67.2817 109.504 66.8086 109.252 66.4371 108.881C66.0656 108.511 65.8124 108.038 65.7096 107.524C65.6068 107.009 65.659 106.476 65.8595 105.991C66.06 105.506 66.4 105.091 66.8362 104.799C67.2724 104.508 67.7854 104.352 68.3102 104.352C69.0125 104.352 69.6861 104.631 70.1833 105.127C70.6805 105.623 70.9606 106.296 70.9622 106.998Z" fill="#FFB573"/>
<path d="M129.216 73.194H58.374C55.7794 73.194 53.676 75.2973 53.676 77.892V89.556C53.676 92.1506 55.7794 94.254 58.374 94.254H129.216C131.811 94.254 133.914 92.1506 133.914 89.556V77.892C133.914 75.2973 131.811 73.194 129.216 73.194Z" fill="#F2BF00"/>
<path d="M131.736 85.524L126.696 94.254H139.296L131.736 85.524Z" fill="#F2BF00"/>
<path d="M84.2102 80.5441L85.2422 82.6381L87.5522 82.9741L85.8782 84.6001L86.2742 86.8981L84.2102 85.8121L82.1462 86.8981L82.5422 84.6001L80.8682 82.9741L83.1782 82.6381L84.2102 80.5441Z" fill="white"/>
<path d="M93.582 80.5441L94.614 82.6381L96.924 82.9741L95.25 84.6001L95.646 86.8981L93.582 85.8121L91.518 86.8981L91.914 84.6001L90.24 82.9741L92.55 82.6381L93.582 80.5441Z" fill="white"/>
<path opacity="0.3" d="M102.954 81.9L103.446 82.902C103.489 82.9902 103.554 83.0663 103.633 83.1238C103.713 83.1814 103.805 83.2185 103.902 83.232L105 83.4L104.202 84.1801C104.133 84.2475 104.081 84.3307 104.05 84.4227C104.02 84.5146 104.012 84.6125 104.028 84.708L104.214 85.8121L103.23 85.29C103.144 85.2433 103.047 85.2185 102.948 85.218C102.852 85.2177 102.756 85.2425 102.672 85.29L101.682 85.8121L101.868 84.708C101.884 84.6125 101.876 84.5146 101.846 84.4227C101.816 84.3307 101.764 84.2475 101.694 84.1801L100.896 83.4L102 83.238C102.097 83.2245 102.19 83.1874 102.269 83.1298C102.349 83.0723 102.413 82.9961 102.456 82.908L102.948 81.906M102.948 80.55L101.916 82.6441L99.6062 82.9801L101.28 84.606L100.884 86.904L102.948 85.818L105.012 86.904L104.616 84.606L106.29 82.9801L103.98 82.6441L102.948 80.55Z" fill="white"/>
<path opacity="0.3" d="M112.326 81.9001L112.818 82.9021C112.861 82.9902 112.926 83.0663 113.005 83.1239C113.085 83.1814 113.177 83.2185 113.274 83.2321L114.378 83.3941L113.58 84.1741C113.511 84.2415 113.459 84.3248 113.428 84.4167C113.398 84.5086 113.39 84.6065 113.406 84.7021L113.592 85.8061L112.608 85.2841C112.521 85.2373 112.425 85.2126 112.326 85.2121C112.229 85.2118 112.134 85.2366 112.05 85.2841L111.06 85.8061L111.246 84.7021C111.262 84.6065 111.254 84.5086 111.224 84.4167C111.194 84.3248 111.142 84.2415 111.072 84.1741L110.274 83.3941L111.378 83.2321C111.475 83.2185 111.568 83.1814 111.647 83.1239C111.727 83.0663 111.791 82.9902 111.834 82.9021L112.326 81.9001ZM112.326 80.5441L111.294 82.6381L108.984 82.9741L110.658 84.6001L110.262 86.8981L112.326 85.8121L114.39 86.8981L114 84.6001L115.674 82.9741L113.364 82.6381L112.332 80.5441H112.326Z" fill="white"/>
<path opacity="0.3" d="M121.698 81.9001L122.19 82.9021C122.233 82.9902 122.298 83.0663 122.377 83.1239C122.457 83.1814 122.549 83.2185 122.646 83.2321L123.75 83.3941L122.952 84.1741C122.883 84.2415 122.831 84.3248 122.8 84.4167C122.77 84.5086 122.762 84.6065 122.778 84.7021L122.964 85.8061L121.98 85.2841C121.894 85.2373 121.797 85.2126 121.698 85.2121C121.602 85.2118 121.506 85.2366 121.422 85.2841L120.432 85.8061L120.618 84.7021C120.634 84.6065 120.626 84.5086 120.596 84.4167C120.566 84.3248 120.514 84.2415 120.444 84.1741L119.646 83.3941L120.75 83.2321C120.847 83.2185 120.94 83.1814 121.019 83.1239C121.099 83.0663 121.163 82.9902 121.206 82.9021L121.698 81.9001ZM121.698 80.5441L120.666 82.6381L118.356 82.9741L120.03 84.6001L119.634 86.8981L121.698 85.8121L123.762 86.8981L123.366 84.6001L125.04 82.9741L122.73 82.6381L121.698 80.5441Z" fill="white"/>
<path opacity="0.2" d="M68.31 90.9301C72.2898 90.9301 75.516 87.7038 75.516 83.7241C75.516 79.7443 72.2898 76.5181 68.31 76.5181C64.3302 76.5181 61.104 79.7443 61.104 83.7241C61.104 87.7038 64.3302 90.9301 68.31 90.9301Z" fill="white"/>
<path d="M74.2621 83.7241C74.2636 85.0481 73.8232 86.3348 73.0106 87.3801C72.1981 88.4255 71.0599 89.1697 69.7764 89.4949C68.4929 89.8201 67.1376 89.7076 65.9254 89.1752C64.7131 88.6429 63.7132 87.7211 63.0841 86.5561C62.6086 85.6881 62.3609 84.7137 62.3641 83.7241C62.3388 82.9269 62.4739 82.1329 62.7615 81.389C63.049 80.6451 63.4832 79.9666 64.0381 79.3938C64.593 78.8209 65.2574 78.3655 65.9918 78.0545C66.7262 77.7434 67.5156 77.5831 68.3131 77.5831C69.1106 77.5831 69.9 77.7434 70.6344 78.0545C71.3688 78.3655 72.0331 78.8209 72.5881 79.3938C73.143 79.9666 73.5771 80.6451 73.8647 81.389C74.1523 82.1329 74.2874 82.9269 74.2621 83.7241Z" fill="white"/>
<path d="M73.542 86.556C73.0319 87.4982 72.2768 88.2851 71.3563 88.8335C70.4359 89.3819 69.3844 89.6714 68.313 89.6714C67.2416 89.6714 66.1901 89.3819 65.2696 88.8335C64.3492 88.2851 63.594 87.4982 63.084 86.556C64.6322 85.5228 66.4517 84.9714 68.313 84.9714C70.1743 84.9714 71.9938 85.5228 73.542 86.556Z" fill="#F2BF00"/>
<path d="M70.9622 81.69C70.9622 82.2145 70.8067 82.7272 70.5153 83.1633C70.2239 83.5995 69.8097 83.9394 69.3251 84.1401C68.8405 84.3408 68.3073 84.3933 67.7928 84.291C67.2784 84.1887 66.8058 83.9361 66.435 83.5652C66.0641 83.1943 65.8115 82.7218 65.7092 82.2074C65.6068 81.6929 65.6593 81.1597 65.8601 80.6751C66.0608 80.1905 66.4007 79.7763 66.8368 79.4849C67.273 79.1935 67.7857 79.038 68.3102 79.038C68.6587 79.0372 69.0039 79.1052 69.326 79.2382C69.6481 79.3712 69.9408 79.5665 70.1872 79.813C70.4336 80.0594 70.6289 80.3521 70.7619 80.6742C70.8949 80.9963 70.963 81.3415 70.9622 81.69Z" fill="#B55B52"/>
</svg>
