<svg width="411" height="401" viewBox="0 0 411 401" fill="none" xmlns="http://www.w3.org/2000/svg">
<ellipse cx="250.5" cy="243" rx="250.5" ry="243" fill="url(#paint0_radial_401_1186)"/>
<path d="M228.648 372.288L236.332 383.639L237.744 373.562L240.628 373.965L237.534 396.054L234.651 395.65L236.084 385.414L225.524 394.372L221.879 393.862L233.442 384.204L224.877 371.76L228.648 372.288Z" fill="black"/>
<path d="M198.082 373.415C198.261 372.89 198.48 372.345 198.74 371.779L212.009 376.294C212.465 374.624 212.346 373.153 211.652 371.88C210.931 370.621 209.844 369.744 208.39 369.249C207.198 368.843 206.116 368.779 205.142 369.057C204.142 369.347 203.322 369.902 202.683 370.721L199.714 369.711C200.701 368.267 202.033 367.266 203.71 366.71C205.38 366.174 207.204 366.243 209.183 366.916C210.759 367.452 212.052 368.287 213.064 369.42C214.055 370.546 214.684 371.875 214.951 373.408C215.212 374.961 215.05 376.596 214.466 378.313C213.882 380.03 213.026 381.418 211.9 382.477C210.773 383.535 209.477 384.199 208.012 384.466C206.519 384.747 204.965 384.613 203.349 384.063C201.774 383.527 200.497 382.709 199.519 381.61C198.541 380.511 197.935 379.246 197.701 377.814C197.44 376.396 197.567 374.929 198.082 373.415ZM200.734 374.959C200.377 376.009 200.303 376.987 200.513 377.893C200.717 378.818 201.157 379.61 201.834 380.269C202.485 380.941 203.295 381.442 204.264 381.771C205.657 382.246 207 382.207 208.292 381.655C209.564 381.096 210.539 380.053 211.216 378.526L200.734 374.959Z" fill="black"/>
<path d="M174.585 361.105C174.859 360.622 175.177 360.128 175.538 359.622L187.723 366.547C188.484 364.992 188.644 363.524 188.201 362.144C187.73 360.772 186.826 359.706 185.491 358.948C184.397 358.326 183.345 358.059 182.337 358.149C181.3 358.247 180.391 358.638 179.609 359.323L176.883 357.773C178.124 356.54 179.62 355.807 181.371 355.575C183.112 355.362 184.891 355.772 186.708 356.805C188.155 357.627 189.269 358.69 190.05 359.993C190.812 361.285 191.181 362.709 191.155 364.265C191.119 365.839 190.653 367.415 189.757 368.991C188.861 370.568 187.761 371.77 186.456 372.599C185.15 373.428 183.753 373.836 182.263 373.823C180.744 373.819 179.243 373.395 177.759 372.552C176.312 371.73 175.212 370.687 174.457 369.424C173.703 368.161 173.345 366.804 173.384 365.354C173.394 363.912 173.794 362.496 174.585 361.105ZM176.9 363.119C176.351 364.084 176.096 365.03 176.132 365.959C176.158 366.906 176.442 367.767 176.984 368.541C177.496 369.323 178.198 369.967 179.088 370.473C180.368 371.2 181.694 371.414 183.066 371.115C184.421 370.804 185.574 369.963 186.526 368.59L176.9 363.119Z" fill="black"/>
<path d="M160.525 356.758C159.433 357.14 158.243 357.211 156.956 356.971C155.638 356.734 154.406 356.12 153.261 355.129C152.083 354.11 151.262 352.906 150.799 351.518C150.319 350.116 150.252 348.661 150.597 347.154C150.927 345.663 151.679 344.24 152.851 342.885C154.01 341.546 155.317 340.589 156.773 340.015C158.228 339.441 159.692 339.282 161.162 339.539C162.616 339.781 163.933 340.412 165.11 341.431C166.24 342.408 167.024 343.523 167.462 344.777C167.871 346.033 167.973 347.236 167.769 348.385L175.326 339.648L177.529 341.553L160.613 361.108L158.41 359.203L160.525 356.758ZM155.102 344.832C154.237 345.832 153.685 346.878 153.446 347.969C153.207 349.06 153.267 350.099 153.626 351.087C153.969 352.06 154.552 352.903 155.374 353.615C156.181 354.312 157.106 354.76 158.148 354.957C159.161 355.156 160.205 355.057 161.281 354.662C162.326 354.269 163.274 353.58 164.126 352.596C164.991 351.595 165.55 350.542 165.803 349.434C166.025 348.329 165.972 347.282 165.644 346.293C165.285 345.305 164.702 344.463 163.895 343.765C163.072 343.053 162.155 342.598 161.142 342.399C160.099 342.202 159.055 342.3 158.01 342.693C156.951 343.103 155.981 343.815 155.102 344.832Z" fill="black"/>
<path d="M123.439 327.904L135.485 320.553C137.179 319.519 138.185 318.343 138.504 317.023C138.813 315.686 138.517 314.279 137.617 312.804C136.728 311.347 135.623 310.459 134.304 310.14C132.973 309.802 131.461 310.15 129.768 311.184L117.721 318.535L116.204 316.049L128.223 308.715C129.808 307.748 131.341 307.25 132.822 307.22C134.285 307.202 135.615 307.578 136.809 308.348C137.993 309.1 138.996 310.15 139.819 311.498C140.641 312.845 141.121 314.227 141.26 315.642C141.388 317.038 141.109 318.383 140.423 319.676C139.709 320.962 138.559 322.088 136.975 323.055L124.956 330.39L123.439 327.904Z" fill="black"/>
<path d="M111.22 293.443C110.493 291.437 110.516 289.591 111.289 287.904C112.041 286.224 113.561 284.97 115.847 284.141L125.564 280.619L126.546 283.327L117.22 286.707C115.575 287.303 114.471 288.169 113.906 289.304C113.322 290.446 113.288 291.729 113.804 293.153C114.327 294.597 115.197 295.587 116.412 296.122C117.62 296.637 119.086 296.582 120.811 295.957L129.927 292.653L130.919 295.39L114.433 301.367L113.44 298.629L115.787 297.778C114.748 297.542 113.831 297.046 113.035 296.291C112.232 295.516 111.627 294.566 111.22 293.443Z" fill="black"/>
<path d="M102.993 273.369C103.103 273.913 103.009 274.411 102.709 274.864C102.409 275.316 101.987 275.598 101.444 275.708C100.9 275.819 100.402 275.724 99.9492 275.424C99.4964 275.125 99.2148 274.703 99.1043 274.159C98.9981 273.637 99.0971 273.159 99.4012 272.727C99.701 272.275 100.123 271.993 100.666 271.883C101.21 271.772 101.708 271.867 102.161 272.167C102.609 272.446 102.887 272.846 102.993 273.369ZM105.503 271.422L122.688 267.93L123.268 270.784L106.083 274.276L105.503 271.422Z" fill="black"/>
<path d="M97.3267 257.617L120.883 255.2L121.18 258.096L97.624 260.514L97.3267 257.617Z" fill="black"/>
<path d="M111.204 245.988C109.414 245.9 107.866 245.461 106.559 244.671C105.23 243.88 104.224 242.838 103.54 241.544C102.856 240.23 102.553 238.794 102.628 237.239C102.703 235.705 103.099 234.389 103.814 233.292C104.53 232.195 105.402 231.394 106.431 230.889L103.235 230.733L103.378 227.792L120.893 228.647L120.75 231.588L117.49 231.429C118.484 232.054 119.294 232.959 119.92 234.143C120.525 235.304 120.791 236.641 120.717 238.154C120.641 239.71 120.189 241.097 119.361 242.317C118.532 243.537 117.408 244.475 115.987 245.132C114.567 245.789 112.973 246.074 111.204 245.988ZM111.96 231.159C110.639 231.094 109.475 231.304 108.469 231.789C107.463 232.274 106.682 232.962 106.126 233.853C105.549 234.722 105.235 235.7 105.182 236.787C105.128 237.874 105.336 238.877 105.803 239.797C106.271 240.717 106.982 241.467 107.936 242.047C108.89 242.628 110.028 242.951 111.349 243.015C112.692 243.081 113.876 242.871 114.904 242.388C115.91 241.903 116.701 241.226 117.278 240.357C117.833 239.487 118.137 238.509 118.19 237.422C118.243 236.335 118.036 235.332 117.568 234.412C117.08 233.47 116.359 232.708 115.405 232.128C114.429 231.546 113.281 231.223 111.96 231.159Z" fill="black"/>
<path d="M106.916 207.246C107.295 205.779 107.946 204.581 108.869 203.652C109.798 202.702 110.816 202.084 111.926 201.797L108.828 200.997L109.564 198.147L126.915 202.628C128.464 203.028 129.752 203.713 130.779 204.683C131.827 205.659 132.532 206.854 132.894 208.27C133.26 209.665 133.233 211.178 132.812 212.81C132.236 215.04 131.229 216.763 129.791 217.979C128.354 219.194 126.692 219.701 124.805 219.5L125.525 216.711C126.637 216.668 127.629 216.241 128.499 215.431C129.39 214.625 130.012 213.541 130.364 212.177C130.764 210.628 130.604 209.243 129.884 208.021C129.169 206.779 127.934 205.931 126.178 205.478L122.615 204.558C123.463 205.372 124.076 206.411 124.454 207.677C124.832 208.942 124.832 210.308 124.453 211.775C124.064 213.282 123.337 214.56 122.273 215.607C121.215 216.634 119.924 217.325 118.4 217.681C116.876 218.036 115.257 217.993 113.542 217.55C111.807 217.102 110.38 216.358 109.26 215.32C108.119 214.276 107.345 213.052 106.937 211.647C106.534 210.22 106.527 208.754 106.916 207.246ZM117.286 203.182C116.005 202.851 114.823 202.821 113.74 203.092C112.656 203.363 111.752 203.879 111.027 204.639C110.286 205.373 109.78 206.267 109.508 207.32C109.236 208.374 109.236 209.398 109.508 210.394C109.779 211.389 110.324 212.268 111.14 213.03C111.957 213.791 113.006 214.338 114.287 214.668C115.588 215.004 116.791 215.04 117.895 214.774C118.978 214.503 119.89 214 120.631 213.266C121.35 212.527 121.846 211.63 122.118 210.577C122.39 209.523 122.391 208.499 122.119 207.503C121.832 206.482 121.28 205.59 120.463 204.828C119.626 204.061 118.567 203.512 117.286 203.182Z" fill="black"/>
<path d="M125.897 175.375C124.069 174.194 122.696 172.722 121.778 170.96C120.841 169.187 120.418 167.326 120.509 165.378C120.611 163.412 121.224 161.56 122.347 159.822C123.667 157.779 125.312 156.315 127.281 155.429C129.251 154.542 131.367 154.335 133.628 154.806L131.735 157.735C130.27 157.525 128.915 157.716 127.669 158.308C126.434 158.882 125.377 159.849 124.497 161.211C123.652 162.519 123.198 163.889 123.135 165.322C123.073 166.755 123.415 168.132 124.162 169.453C124.89 170.762 126.007 171.903 127.512 172.876C128.999 173.837 130.498 174.386 132.009 174.525C133.502 174.651 134.889 174.392 136.17 173.746C137.451 173.101 138.514 172.124 139.359 170.816C140.239 169.455 140.696 168.099 140.73 166.749C140.758 165.37 140.375 164.056 139.582 162.807L141.476 159.877C142.816 161.734 143.486 163.742 143.488 165.902C143.471 168.05 142.802 170.146 141.482 172.188C140.359 173.926 138.931 175.252 137.199 176.164C135.46 177.047 133.598 177.431 131.614 177.317C129.63 177.204 127.724 176.556 125.897 175.375Z" fill="black"/>
<path d="M137.633 138.323L155.182 154.222L153.227 156.38L135.678 140.481L137.633 138.323Z" fill="black"/>
<path d="M168.339 129.594C168.693 130.021 169.042 130.494 169.387 131.011L158.588 139.945C159.771 141.209 161.087 141.879 162.534 141.955C163.984 142.001 165.301 141.535 166.485 140.555C167.455 139.753 168.077 138.865 168.351 137.891C168.627 136.887 168.584 135.898 168.222 134.924L170.638 132.925C171.351 134.523 171.505 136.181 171.1 137.901C170.681 139.604 169.666 141.121 168.055 142.454C166.773 143.515 165.385 144.179 163.89 144.447C162.411 144.701 160.949 144.54 159.503 143.964C158.044 143.371 156.737 142.376 155.581 140.979C154.425 139.582 153.691 138.126 153.38 136.612C153.068 135.097 153.183 133.646 153.723 132.258C154.267 130.839 155.196 129.586 156.511 128.498C157.793 127.438 159.158 126.779 160.607 126.522C162.055 126.265 163.451 126.412 164.793 126.963C166.137 127.484 167.32 128.361 168.339 129.594ZM165.634 131.043C164.927 130.188 164.133 129.613 163.252 129.317C162.357 129.006 161.452 128.965 160.536 129.197C159.623 129.399 158.772 129.826 157.983 130.478C156.848 131.417 156.178 132.581 155.971 133.97C155.78 135.346 156.157 136.723 157.103 138.1L165.634 131.043Z" fill="black"/>
<path d="M176.471 124.707C175.62 123.13 175.195 121.578 175.195 120.051C175.185 118.505 175.557 117.104 176.31 115.849C177.082 114.585 178.154 113.582 179.524 112.843C180.876 112.114 182.206 111.772 183.515 111.817C184.825 111.862 185.961 112.194 186.925 112.813L185.406 109.997L187.997 108.599L196.323 124.032L193.732 125.43L192.183 122.558C192.162 123.732 191.807 124.894 191.117 126.041C190.436 127.16 189.429 128.079 188.096 128.798C186.725 129.538 185.304 129.868 183.831 129.79C182.359 129.712 180.974 129.235 179.677 128.359C178.381 127.483 177.312 126.266 176.471 124.707ZM189.554 117.685C188.926 116.521 188.144 115.634 187.209 115.024C186.274 114.413 185.281 114.1 184.23 114.085C183.189 114.041 182.189 114.278 181.231 114.794C180.274 115.311 179.522 116.007 178.977 116.883C178.431 117.759 178.157 118.756 178.154 119.873C178.15 120.99 178.462 122.13 179.09 123.294C179.729 124.477 180.52 125.383 181.466 126.012C182.401 126.623 183.39 126.95 184.431 126.994C185.463 127.019 186.458 126.773 187.415 126.257C188.373 125.74 189.124 125.044 189.67 124.168C190.224 123.263 190.503 122.252 190.506 121.135C190.499 119.999 190.182 118.849 189.554 117.685Z" fill="black"/>
<path d="M208.6 100.612C210.642 99.9923 212.484 100.113 214.128 100.974C215.765 101.815 216.937 103.399 217.643 105.727L220.644 115.617L217.888 116.454L215.008 106.961C214.5 105.287 213.694 104.138 212.591 103.514C211.481 102.87 210.202 102.768 208.752 103.207C207.283 103.653 206.248 104.469 205.649 105.654C205.07 106.833 205.047 108.3 205.58 110.055L208.395 119.334L205.609 120.179L200.517 103.399L203.304 102.553L204.028 104.942C204.32 103.917 204.863 103.027 205.66 102.273C206.477 101.512 207.457 100.959 208.6 100.612Z" fill="black"/>
<path d="M231.539 113.901C230.991 113.985 230.498 113.866 230.061 113.544C229.623 113.222 229.363 112.787 229.279 112.239C229.196 111.69 229.315 111.197 229.637 110.76C229.959 110.322 230.394 110.062 230.942 109.979C231.469 109.898 231.941 110.021 232.357 110.346C232.795 110.668 233.055 111.103 233.139 111.651C233.222 112.199 233.103 112.692 232.781 113.13C232.48 113.564 232.066 113.821 231.539 113.901Z" fill="black"/>
<path d="M268.219 113.217L260.036 102.22L259.076 112.351L256.177 112.076L258.28 89.8717L261.179 90.1463L260.205 100.436L270.354 91.0151L274.018 91.3621L262.898 101.527L272.01 113.576L268.219 113.217Z" fill="black"/>
<path d="M298.705 110.725C298.55 111.257 298.355 111.812 298.121 112.388L284.663 108.471C284.283 110.16 284.467 111.624 285.217 112.865C285.994 114.09 287.119 114.918 288.594 115.347C289.802 115.699 290.887 115.715 291.846 115.394C292.833 115.059 293.627 114.468 294.229 113.621L297.24 114.498C296.318 115.985 295.032 117.044 293.382 117.674C291.738 118.284 289.913 118.297 287.905 117.713C286.308 117.248 284.978 116.472 283.917 115.386C282.876 114.305 282.188 113.005 281.853 111.485C281.523 109.945 281.612 108.305 282.119 106.564C282.625 104.823 283.418 103.398 284.496 102.29C285.574 101.181 286.839 100.461 288.291 100.128C289.77 99.781 291.328 99.8459 292.967 100.323C294.565 100.788 295.877 101.548 296.903 102.602C297.929 103.656 298.591 104.893 298.889 106.313C299.213 107.718 299.152 109.189 298.705 110.725ZM295.986 109.3C296.296 108.235 296.326 107.255 296.076 106.36C295.831 105.445 295.356 104.673 294.65 104.045C293.97 103.403 293.139 102.939 292.156 102.653C290.742 102.241 289.403 102.34 288.137 102.949C286.891 103.565 285.964 104.65 285.356 106.206L295.986 109.3Z" fill="black"/>
<path d="M322.729 121.972C322.477 122.466 322.181 122.974 321.843 123.496L309.36 117.123C308.669 118.71 308.576 120.183 309.079 121.542C309.612 122.892 310.562 123.916 311.93 124.615C313.051 125.187 314.113 125.406 315.116 125.271C316.148 125.127 317.039 124.696 317.789 123.977L320.582 125.403C319.397 126.691 317.936 127.49 316.197 127.799C314.467 128.09 312.672 127.76 310.81 126.809C309.328 126.053 308.167 125.041 307.329 123.775C306.51 122.518 306.078 121.112 306.034 119.556C305.999 117.982 306.394 116.387 307.219 114.772C308.044 113.157 309.089 111.906 310.356 111.02C311.623 110.134 313.001 109.664 314.49 109.609C316.007 109.546 317.526 109.902 319.046 110.678C320.528 111.435 321.674 112.427 322.484 113.656C323.294 114.884 323.712 116.223 323.738 117.673C323.793 119.114 323.456 120.547 322.729 121.972ZM320.326 120.063C320.831 119.075 321.044 118.118 320.966 117.192C320.898 116.247 320.576 115.4 320 114.651C319.453 113.892 318.723 113.28 317.812 112.815C316.501 112.145 315.166 111.991 313.808 112.352C312.469 112.722 311.355 113.614 310.465 115.028L320.326 120.063Z" fill="black"/>
<path d="M336.969 125.686C338.043 125.256 339.228 125.132 340.525 125.314C341.852 125.492 343.11 126.05 344.299 126.989C345.521 127.954 346.395 129.12 346.92 130.486C347.461 131.865 347.594 133.316 347.317 134.837C347.053 136.341 346.366 137.796 345.255 139.202C344.158 140.592 342.895 141.606 341.466 142.245C340.037 142.883 338.583 143.107 337.102 142.917C335.638 142.739 334.295 142.168 333.073 141.203C331.901 140.277 331.068 139.198 330.574 137.965C330.11 136.729 329.954 135.532 330.107 134.375L322.947 143.44L320.662 141.636L336.687 121.345L338.972 123.149L336.969 125.686ZM342.92 137.358C343.739 136.32 344.244 135.251 344.434 134.15C344.623 133.049 344.517 132.014 344.114 131.043C343.729 130.086 343.109 129.271 342.255 128.596C341.418 127.935 340.474 127.53 339.424 127.38C338.403 127.226 337.365 127.371 336.308 127.814C335.281 128.253 334.364 128.984 333.558 130.005C332.738 131.043 332.227 132.121 332.024 133.238C331.851 134.352 331.951 135.396 332.323 136.37C332.726 137.34 333.346 138.156 334.183 138.817C335.037 139.491 335.974 139.905 336.994 140.059C338.045 140.209 339.083 140.064 340.11 139.625C341.15 139.168 342.087 138.413 342.92 137.358Z" fill="black"/>
<path d="M375.307 152.854L363.602 160.736C361.956 161.844 361.003 163.064 360.743 164.397C360.495 165.747 360.854 167.139 361.819 168.572C362.772 169.988 363.915 170.826 365.247 171.086C366.592 171.364 368.087 170.948 369.733 169.84L381.438 161.958L383.065 164.373L371.386 172.238C369.846 173.274 368.337 173.841 366.858 173.936C365.397 174.02 364.052 173.704 362.824 172.987C361.608 172.289 360.559 171.285 359.677 169.976C358.796 168.666 358.254 167.308 358.052 165.9C357.862 164.511 358.081 163.155 358.708 161.833C359.364 160.516 360.462 159.339 362.002 158.303L373.681 150.438L375.307 152.854Z" fill="black"/>
<path d="M389.055 186.734C389.871 188.705 389.93 190.551 389.234 192.27C388.557 193.982 387.095 195.303 384.848 196.233L375.298 200.186L374.196 197.525L383.362 193.731C384.978 193.062 386.043 192.148 386.556 190.989C387.089 189.822 387.066 188.539 386.486 187.139C385.899 185.72 384.986 184.77 383.748 184.29C382.519 183.829 381.056 183.949 379.361 184.651L370.402 188.36L369.288 185.669L385.491 178.962L386.605 181.653L384.299 182.607C385.347 182.797 386.285 183.251 387.114 183.97C387.951 184.709 388.598 185.63 389.055 186.734Z" fill="black"/>
<path d="M398.171 206.42C398.036 205.882 398.108 205.38 398.388 204.914C398.667 204.449 399.076 204.149 399.614 204.014C400.152 203.879 400.654 203.952 401.12 204.231C401.585 204.51 401.885 204.919 402.02 205.457C402.15 205.974 402.072 206.456 401.788 206.901C401.508 207.366 401.1 207.667 400.561 207.801C400.023 207.936 399.521 207.863 399.056 207.584C398.595 207.326 398.3 206.938 398.171 206.42ZM395.75 208.477L378.738 212.734L378.031 209.909L395.043 205.652L395.75 208.477Z" fill="black"/>
<path d="M404.535 221.903L381.111 225.371L380.684 222.491L404.109 219.022L404.535 221.903Z" fill="black"/>
<path d="M391.192 234.141C392.984 234.149 394.55 234.518 395.891 235.249C397.253 235.979 398.305 236.976 399.047 238.237C399.788 239.521 400.156 240.941 400.15 242.498C400.143 244.034 399.807 245.366 399.141 246.494C398.475 247.622 397.64 248.461 396.635 249.012L399.835 249.025L399.823 251.969L382.287 251.897L382.299 248.953L385.563 248.967C384.541 248.386 383.692 247.519 383.014 246.364C382.357 245.231 382.032 243.907 382.038 242.392C382.044 240.835 382.434 239.428 383.207 238.173C383.98 236.917 385.062 235.93 386.451 235.21C387.841 234.49 389.421 234.134 391.192 234.141ZM391.099 248.989C392.422 248.995 393.575 248.733 394.558 248.203C395.542 247.674 396.291 246.952 396.807 246.036C397.344 245.143 397.615 244.152 397.619 243.064C397.624 241.976 397.372 240.983 396.863 240.085C396.355 239.187 395.611 238.469 394.632 237.931C393.653 237.394 392.502 237.123 391.179 237.117C389.835 237.112 388.661 237.374 387.656 237.903C386.673 238.432 385.912 239.144 385.375 240.038C384.86 240.932 384.6 241.923 384.595 243.011C384.591 244.099 384.843 245.092 385.351 245.99C385.881 246.909 386.635 247.638 387.614 248.175C388.615 248.712 389.776 248.984 391.099 248.989Z" fill="black"/>
<path d="M397.207 272.653C396.894 274.135 396.297 275.361 395.417 276.33C394.532 277.321 393.541 277.984 392.446 278.32L395.577 278.981L394.969 281.861L377.435 278.16C375.87 277.83 374.552 277.203 373.482 276.279C372.392 275.351 371.634 274.188 371.21 272.791C370.781 271.414 370.74 269.901 371.089 268.252C371.564 265.997 372.493 264.231 373.875 262.953C375.257 261.675 376.895 261.094 378.789 261.21L378.194 264.028C377.084 264.121 376.113 264.592 375.279 265.441C374.425 266.285 373.853 267.396 373.562 268.774C373.232 270.339 373.453 271.716 374.227 272.904C374.997 274.113 376.269 274.905 378.043 275.28L381.644 276.04C380.761 275.265 380.102 274.253 379.668 273.006C379.233 271.759 379.172 270.394 379.485 268.912C379.807 267.388 380.476 266.08 381.491 264.986C382.503 263.913 383.762 263.165 385.268 262.741C386.775 262.318 388.394 262.289 390.127 262.655C391.88 263.025 393.34 263.704 394.505 264.691C395.691 265.683 396.519 266.871 396.99 268.257C397.456 269.664 397.528 271.129 397.207 272.653ZM387.029 277.176C388.323 277.449 389.505 277.426 390.576 277.107C391.646 276.788 392.526 276.233 393.217 275.441C393.924 274.674 394.39 273.759 394.614 272.694C394.839 271.63 394.793 270.606 394.477 269.624C394.162 268.641 393.579 267.788 392.729 267.063C391.878 266.339 390.806 265.84 389.512 265.567C388.197 265.289 386.994 265.308 385.903 265.623C384.833 265.942 383.944 266.485 383.237 267.251C382.551 268.022 382.096 268.94 381.871 270.004C381.646 271.069 381.692 272.092 382.008 273.075C382.34 274.083 382.931 274.949 383.781 275.673C384.652 276.402 385.735 276.903 387.029 277.176Z" fill="black"/>
<path d="M379.67 305.34C381.548 306.438 382.986 307.847 383.982 309.566C384.997 311.296 385.503 313.136 385.499 315.087C385.485 317.055 384.956 318.933 383.911 320.719C382.684 322.819 381.106 324.355 379.178 325.328C377.25 326.302 375.146 326.604 372.866 326.234L374.626 323.223C376.099 323.367 377.444 323.116 378.663 322.469C379.87 321.841 380.883 320.827 381.701 319.427C382.487 318.083 382.88 316.693 382.878 315.259C382.876 313.825 382.473 312.465 381.668 311.179C380.881 309.903 379.715 308.813 378.168 307.909C376.639 307.015 375.117 306.533 373.601 306.463C372.104 306.403 370.73 306.724 369.48 307.426C368.229 308.128 367.211 309.151 366.425 310.496C365.606 311.896 365.21 313.27 365.237 314.62C365.271 315.999 365.712 317.295 366.56 318.507L364.799 321.518C363.377 319.724 362.618 317.747 362.52 315.59C362.441 313.443 363.015 311.32 364.242 309.22C365.287 307.434 366.654 306.046 368.344 305.057C370.042 304.097 371.884 303.63 373.871 303.655C375.858 303.68 377.791 304.242 379.67 305.34Z" fill="black"/>
<path d="M369.601 342.88L351.359 327.781L353.216 325.537L371.458 340.637L369.601 342.88Z" fill="black"/>
<path d="M339.316 352.972C338.943 352.561 338.573 352.105 338.206 351.603L348.595 342.196C347.356 340.986 346.012 340.376 344.563 340.364C343.112 340.383 341.817 340.908 340.679 341.939C339.746 342.784 339.164 343.699 338.934 344.684C338.702 345.7 338.789 346.686 339.195 347.642L336.87 349.747C336.087 348.183 335.859 346.533 336.187 344.797C336.529 343.077 337.475 341.516 339.025 340.112C340.258 338.996 341.616 338.27 343.097 337.936C344.563 337.616 346.031 337.711 347.501 338.222C348.985 338.749 350.336 339.684 351.553 341.028C352.77 342.372 353.568 343.794 353.947 345.293C354.326 346.792 354.276 348.247 353.798 349.658C353.319 351.099 352.447 352.393 351.182 353.538C349.948 354.655 348.614 355.374 347.178 355.696C345.742 356.017 344.342 355.933 342.977 355.442C341.61 354.982 340.39 354.158 339.316 352.972ZM341.954 351.404C342.698 352.226 343.517 352.765 344.411 353.021C345.319 353.293 346.225 353.292 347.129 353.02C348.033 352.778 348.864 352.313 349.623 351.626C350.714 350.638 351.332 349.445 351.477 348.048C351.606 346.664 351.167 345.306 350.161 343.972L341.954 351.404Z" fill="black"/>
<path d="M331.411 358.218C332.331 359.755 332.825 361.287 332.893 362.813C332.972 364.357 332.664 365.772 331.967 367.059C331.253 368.358 330.227 369.407 328.891 370.207C327.573 370.996 326.259 371.397 324.95 371.41C323.64 371.423 322.489 371.142 321.498 370.567L323.142 373.313L320.616 374.825L311.609 359.779L314.134 358.267L315.811 361.067C315.779 359.893 316.082 358.717 316.72 357.54C317.35 356.391 318.315 355.428 319.615 354.65C320.951 353.85 322.356 353.456 323.831 353.469C325.305 353.481 326.71 353.896 328.044 354.713C329.379 355.53 330.501 356.699 331.411 358.218ZM318.655 365.817C319.334 366.952 320.155 367.804 321.116 368.372C322.078 368.94 323.084 369.208 324.134 369.176C325.177 369.173 326.165 368.892 327.098 368.333C328.032 367.775 328.751 367.045 329.257 366.146C329.763 365.246 329.993 364.239 329.946 363.123C329.9 362.007 329.537 360.881 328.857 359.746C328.167 358.593 327.335 357.724 326.363 357.137C325.401 356.569 324.399 356.287 323.356 356.289C322.324 356.31 321.342 356.6 320.408 357.159C319.475 357.718 318.755 358.447 318.249 359.347C317.736 360.275 317.503 361.298 317.549 362.414C317.607 363.548 317.975 364.682 318.655 365.817Z" fill="black"/>
<path d="M300.391 383.725C298.379 384.435 296.533 384.397 294.853 383.61C293.179 382.843 291.938 381.313 291.129 379.02L287.689 369.273L290.404 368.314L293.706 377.669C294.288 379.318 295.144 380.43 296.274 381.004C297.412 381.598 298.694 381.643 300.123 381.139C301.571 380.628 302.568 379.767 303.114 378.556C303.639 377.353 303.596 375.886 302.986 374.156L299.759 365.013L302.505 364.044L308.341 380.58L305.595 381.549L304.764 379.195C304.519 380.232 304.016 381.145 303.254 381.934C302.472 382.731 301.517 383.328 300.391 383.725Z" fill="black"/>
<path d="M276.881 371.474C277.425 371.366 277.923 371.463 278.374 371.765C278.825 372.067 279.105 372.49 279.213 373.034C279.321 373.578 279.224 374.076 278.922 374.528C278.62 374.979 278.197 375.259 277.653 375.366C277.13 375.47 276.653 375.369 276.222 375.063C275.771 374.761 275.491 374.338 275.383 373.794C275.276 373.25 275.373 372.752 275.675 372.301C275.956 371.853 276.358 371.578 276.881 371.474Z" fill="black"/>
<defs>
<radialGradient id="paint0_radial_401_1186" cx="0" cy="0" r="1" gradientUnits="userSpaceOnUse" gradientTransform="translate(250.5 243) rotate(90) scale(243 250.5)">
<stop stop-color="#E7B400" stop-opacity="0.28"/>
<stop offset="1" stop-color="#D9D9D9" stop-opacity="0"/>
</radialGradient>
</defs>
</svg>
