<svg width="332" height="343" viewBox="0 0 332 343" fill="none" xmlns="http://www.w3.org/2000/svg">
<path d="M188.716 41.681L181.032 30.3297L179.621 40.4073L176.737 40.0035L179.83 17.915L182.714 18.3189L181.281 28.555L191.841 19.597L195.486 20.1073L183.923 29.765L192.488 42.2091L188.716 41.681Z" fill="black"/>
<path d="M219.283 40.5539C219.104 41.079 218.885 41.6241 218.625 42.1892L205.356 37.6744C204.9 39.3446 205.019 40.8161 205.713 42.0887C206.434 43.348 207.521 44.225 208.975 44.7198C210.167 45.1252 211.249 45.1893 212.223 44.912C213.223 44.6214 214.043 44.0665 214.682 43.2475L217.651 44.2576C216.664 45.7019 215.332 46.7022 213.655 47.2585C211.985 47.7946 210.161 47.7259 208.182 47.0525C206.606 46.5165 205.313 45.682 204.301 44.5491C203.31 43.423 202.681 42.0935 202.414 40.5604C202.153 39.0071 202.315 37.3722 202.899 35.6555C203.483 33.9388 204.339 32.551 205.465 31.4921C206.592 30.4331 207.888 29.7699 209.353 29.5024C210.846 29.2216 212.4 29.3561 214.016 29.9058C215.591 30.4418 216.868 31.2593 217.846 32.3583C218.824 33.4573 219.43 34.7226 219.664 36.1543C219.925 37.5726 219.798 39.0392 219.283 40.5539ZM216.631 39.0094C216.988 37.9592 217.062 36.9814 216.852 36.0761C216.648 35.1506 216.208 34.3585 215.531 33.6999C214.88 33.028 214.07 32.5271 213.101 32.1973C211.707 31.7231 210.365 31.762 209.073 32.3139C207.801 32.8727 206.826 33.9157 206.149 35.4429L216.631 39.0094Z" fill="black"/>
<path d="M242.78 52.8641C242.506 53.3463 242.188 53.8406 241.827 54.3468L229.641 47.4215C228.88 48.9766 228.721 50.4442 229.163 51.8244C229.635 53.1966 230.539 54.2622 231.874 55.0211C232.968 55.643 234.019 55.9091 235.027 55.8195C236.064 55.7218 236.974 55.3306 237.755 54.6461L240.482 56.1956C239.241 57.429 237.745 58.1615 235.994 58.3931C234.253 58.6063 232.474 58.1963 230.656 57.1633C229.21 56.3412 228.096 55.2787 227.315 53.976C226.552 52.6839 226.184 51.2598 226.209 49.7039C226.245 48.1294 226.711 46.5539 227.607 44.9774C228.503 43.4008 229.604 42.1982 230.909 41.3696C232.214 40.541 233.612 40.1328 235.102 40.1452C236.62 40.1496 238.122 40.5734 239.606 41.4167C241.052 42.2388 242.153 43.2815 242.907 44.5445C243.662 45.8076 244.02 47.1642 243.981 48.6143C243.971 50.0565 243.571 51.473 242.78 52.8641ZM240.465 50.8492C241.013 49.8848 241.269 48.9382 241.233 48.0095C241.207 47.0623 240.923 46.2017 240.381 45.4276C239.869 44.6456 239.167 44.0016 238.277 43.4956C236.997 42.7683 235.671 42.5545 234.298 42.854C232.944 43.1642 231.791 44.0057 230.839 45.3786L240.465 50.8492Z" fill="black"/>
<path d="M256.84 57.2102C257.932 56.8288 259.121 56.7579 260.409 56.9974C261.727 57.2348 262.959 57.849 264.104 58.84C265.282 59.8589 266.102 61.0624 266.566 62.4506C267.045 63.8527 267.113 65.3073 266.768 66.8144C266.437 68.3054 265.686 69.7285 264.513 71.0838C263.355 72.4229 262.048 73.3796 260.592 73.9537C259.136 74.5279 257.673 74.6867 256.203 74.4301C254.748 74.1874 253.432 73.5566 252.254 72.5378C251.125 71.5608 250.341 70.4453 249.902 69.1915C249.494 67.9355 249.392 66.7329 249.596 65.5838L242.038 74.3204L239.836 72.4152L256.752 52.8608L258.954 54.7659L256.84 57.2102ZM262.263 69.1368C263.128 68.1365 263.68 67.0908 263.919 65.9997C264.157 64.9086 264.097 63.8693 263.739 62.882C263.396 61.9085 262.813 61.0659 261.99 60.3541C261.184 59.6562 260.259 59.2089 259.216 59.0121C258.204 58.8131 257.16 58.9113 256.084 59.3067C255.039 59.6999 254.09 60.3886 253.239 61.3728C252.374 62.3731 251.815 63.4269 251.562 64.5341C251.339 65.6392 251.393 66.6865 251.721 67.676C252.08 68.6634 252.663 69.506 253.469 70.2039C254.292 70.9157 255.21 71.3711 256.223 71.5701C257.265 71.7669 258.309 71.6687 259.355 71.2755C260.414 70.8661 261.383 70.1532 262.263 69.1368Z" fill="black"/>
<path d="M293.926 86.0649L281.88 93.4161C280.186 94.4496 279.18 95.6261 278.86 96.9456C278.552 98.2834 278.848 99.6898 279.748 101.165C280.637 102.622 281.741 103.51 283.061 103.829C284.392 104.167 285.904 103.819 287.597 102.785L299.643 95.4341L301.16 97.9198L289.141 105.254C287.557 106.221 286.024 106.719 284.543 106.749C283.079 106.767 281.75 106.391 280.555 105.621C279.372 104.868 278.368 103.819 277.546 102.471C276.724 101.123 276.243 99.7422 276.105 98.3273C275.977 96.9307 276.256 95.5858 276.941 94.2928C277.656 93.0069 278.806 91.8805 280.39 90.9137L292.409 83.5792L293.926 86.0649Z" fill="black"/>
<path d="M306.145 120.526C306.872 122.531 306.849 124.377 306.076 126.064C305.324 127.744 303.804 128.998 301.518 129.827L291.801 133.35L290.819 130.642L300.145 127.261C301.79 126.665 302.894 125.8 303.459 124.665C304.043 123.523 304.077 122.239 303.561 120.815C303.038 119.371 302.168 118.382 300.953 117.847C299.745 117.331 298.279 117.386 296.554 118.012L287.438 121.316L286.446 118.578L302.932 112.602L303.925 115.34L301.578 116.19C302.617 116.427 303.534 116.922 304.33 117.678C305.133 118.453 305.738 119.402 306.145 120.526Z" fill="black"/>
<path d="M314.372 140.6C314.262 140.056 314.356 139.558 314.656 139.105C314.956 138.652 315.378 138.371 315.921 138.26C316.465 138.15 316.963 138.245 317.416 138.545C317.869 138.844 318.15 139.266 318.261 139.81C318.367 140.332 318.268 140.81 317.964 141.241C317.664 141.694 317.242 141.976 316.699 142.086C316.155 142.197 315.657 142.102 315.204 141.802C314.756 141.523 314.478 141.122 314.372 140.6ZM311.862 142.547L294.677 146.039L294.097 143.185L311.282 139.693L311.862 142.547Z" fill="black"/>
<path d="M320.038 156.351L296.482 158.769L296.184 155.872L319.741 153.455L320.038 156.351Z" fill="black"/>
<path d="M306.161 167.981C307.951 168.069 309.499 168.507 310.806 169.297C312.134 170.089 313.141 171.131 313.825 172.424C314.509 173.739 314.812 175.175 314.736 176.73C314.661 178.264 314.266 179.58 313.55 180.677C312.835 181.774 311.963 182.575 310.934 183.08L314.13 183.236L313.987 186.177L296.472 185.321L296.615 182.381L299.875 182.54C298.881 181.915 298.07 181.01 297.445 179.826C296.839 178.665 296.574 177.328 296.647 175.815C296.723 174.259 297.176 172.872 298.004 171.652C298.833 170.432 299.957 169.494 301.377 168.837C302.798 168.18 304.392 167.895 306.161 167.981ZM305.405 182.81C306.726 182.875 307.889 182.664 308.896 182.18C309.902 181.695 310.683 181.007 311.239 180.115C311.815 179.247 312.13 178.269 312.183 177.182C312.236 176.095 312.029 175.092 311.561 174.172C311.094 173.252 310.383 172.502 309.428 171.921C308.474 171.341 307.337 171.018 306.016 170.954C304.673 170.888 303.488 171.097 302.461 171.581C301.455 172.066 300.663 172.743 300.087 173.612C299.532 174.482 299.228 175.46 299.175 176.547C299.122 177.634 299.329 178.637 299.797 179.557C300.285 180.499 301.006 181.26 301.96 181.841C302.935 182.423 304.084 182.746 305.405 182.81Z" fill="black"/>
<path d="M310.449 206.723C310.07 208.19 309.419 209.387 308.496 210.317C307.567 211.267 306.549 211.885 305.439 212.171L308.537 212.972L307.801 215.822L290.45 211.341C288.901 210.941 287.613 210.256 286.586 209.285C285.538 208.31 284.833 207.114 284.471 205.699C284.105 204.304 284.132 202.791 284.553 201.159C285.129 198.928 286.136 197.205 287.574 195.99C289.011 194.775 290.673 194.268 292.56 194.469L291.84 197.257C290.728 197.3 289.736 197.727 288.866 198.538C287.975 199.344 287.353 200.428 287.001 201.791C286.601 203.34 286.761 204.726 287.481 205.947C288.196 207.189 289.431 208.037 291.187 208.491L294.75 209.411C293.902 208.597 293.289 207.557 292.911 206.292C292.533 205.027 292.533 203.661 292.912 202.194C293.301 200.686 294.028 199.409 295.092 198.361C296.15 197.335 297.441 196.644 298.965 196.288C300.489 195.932 302.108 195.976 303.823 196.419C305.558 196.867 306.985 197.61 308.105 198.648C309.246 199.692 310.02 200.917 310.428 202.322C310.831 203.748 310.838 205.215 310.449 206.723ZM300.079 210.787C301.36 211.118 302.542 211.148 303.625 210.877C304.709 210.606 305.613 210.09 306.338 209.33C307.079 208.596 307.585 207.702 307.857 206.649C308.129 205.595 308.129 204.571 307.857 203.575C307.586 202.579 307.041 201.701 306.225 200.939C305.408 200.177 304.359 199.631 303.078 199.3C301.777 198.964 300.574 198.929 299.47 199.195C298.387 199.466 297.475 199.968 296.734 200.702C296.015 201.442 295.519 202.338 295.247 203.392C294.975 204.445 294.974 205.47 295.246 206.465C295.533 207.487 296.085 208.379 296.902 209.14C297.739 209.907 298.798 210.456 300.079 210.787Z" fill="black"/>
<path d="M291.468 238.593C293.295 239.775 294.668 241.246 295.587 243.008C296.524 244.782 296.947 246.643 296.856 248.591C296.754 250.557 296.141 252.409 295.018 254.147C293.698 256.19 292.053 257.654 290.083 258.54C288.114 259.426 285.998 259.634 283.737 259.163L285.63 256.234C287.095 256.444 288.45 256.253 289.696 255.661C290.931 255.087 291.988 254.119 292.868 252.758C293.713 251.45 294.167 250.079 294.23 248.646C294.292 247.213 293.95 245.837 293.203 244.516C292.474 243.207 291.358 242.066 289.852 241.093C288.365 240.132 286.866 239.582 285.355 239.444C283.862 239.317 282.476 239.577 281.195 240.222C279.914 240.868 278.851 241.844 278.006 243.152C277.126 244.514 276.669 245.87 276.635 247.219C276.607 248.599 276.989 249.913 277.782 251.162L275.889 254.091C274.549 252.235 273.878 250.226 273.877 248.066C273.894 245.918 274.562 243.823 275.882 241.78C277.006 240.042 278.434 238.717 280.166 237.805C281.905 236.922 283.767 236.537 285.751 236.651C287.734 236.765 289.64 237.412 291.468 238.593Z" fill="black"/>
<path d="M279.731 275.646L262.183 259.746L264.138 257.588L281.686 273.488L279.731 275.646Z" fill="black"/>
<path d="M249.025 284.375C248.672 283.947 248.322 283.475 247.977 282.958L258.777 274.024C257.593 272.76 256.278 272.09 254.83 272.014C253.38 271.968 252.063 272.434 250.88 273.413C249.91 274.216 249.288 275.104 249.014 276.078C248.737 277.082 248.78 278.071 249.143 279.045L246.726 281.044C246.014 279.446 245.86 277.787 246.265 276.068C246.684 274.365 247.698 272.847 249.309 271.515C250.591 270.454 251.98 269.79 253.475 269.522C254.954 269.268 256.416 269.429 257.861 270.005C259.321 270.598 260.628 271.592 261.784 272.99C262.94 274.387 263.673 275.843 263.985 277.357C264.296 278.871 264.182 280.323 263.641 281.711C263.098 283.129 262.169 284.383 260.854 285.47C259.572 286.531 258.207 287.19 256.758 287.447C255.309 287.704 253.914 287.557 252.572 287.006C251.227 286.485 250.045 285.608 249.025 284.375ZM251.731 282.926C252.438 283.781 253.232 284.356 254.113 284.651C255.008 284.963 255.913 285.003 256.829 284.772C257.742 284.57 258.593 284.143 259.382 283.49C260.516 282.552 261.187 281.388 261.394 279.999C261.585 278.623 261.207 277.246 260.262 275.869L251.731 282.926Z" fill="black"/>
<path d="M240.894 289.262C241.744 290.839 242.17 292.391 242.169 293.918C242.179 295.464 241.808 296.865 241.055 298.12C240.283 299.384 239.211 300.387 237.841 301.126C236.489 301.855 235.158 302.197 233.849 302.152C232.54 302.107 231.404 301.775 230.439 301.156L231.959 303.972L229.368 305.37L221.041 289.937L223.632 288.539L225.182 291.411C225.203 290.237 225.558 289.075 226.248 287.928C226.929 286.809 227.936 285.89 229.269 285.171C230.64 284.431 232.061 284.101 233.534 284.179C235.006 284.257 236.391 284.734 237.687 285.61C238.984 286.486 240.053 287.703 240.894 289.262ZM227.811 296.284C228.439 297.448 229.22 298.335 230.156 298.945C231.091 299.556 232.084 299.869 233.134 299.884C234.176 299.928 235.176 299.691 236.133 299.175C237.091 298.658 237.842 297.962 238.388 297.086C238.933 296.21 239.208 295.213 239.211 294.096C239.215 292.979 238.902 291.839 238.274 290.675C237.636 289.492 236.844 288.586 235.899 287.957C234.964 287.346 233.975 287.019 232.933 286.975C231.902 286.95 230.907 287.196 229.95 287.712C228.992 288.229 228.24 288.925 227.695 289.801C227.141 290.706 226.862 291.717 226.859 292.834C226.865 293.97 227.183 295.12 227.811 296.284Z" fill="black"/>
<path d="M208.764 313.357C206.723 313.976 204.881 313.855 203.237 312.994C201.6 312.153 200.428 310.569 199.722 308.242L196.721 298.351L199.477 297.515L202.357 307.008C202.865 308.682 203.671 309.831 204.774 310.455C205.883 311.099 207.163 311.201 208.612 310.761C210.082 310.315 211.117 309.5 211.716 308.315C212.294 307.136 212.317 305.669 211.785 303.913L208.97 294.635L211.756 293.789L216.848 310.57L214.061 311.416L213.336 309.027C213.045 310.052 212.501 310.941 211.705 311.696C210.888 312.456 209.908 313.01 208.764 313.357Z" fill="black"/>
<path d="M185.826 300.067C186.374 299.984 186.867 300.103 187.304 300.425C187.742 300.747 188.002 301.182 188.086 301.73C188.169 302.279 188.05 302.771 187.728 303.209C187.406 303.646 186.971 303.907 186.423 303.99C185.895 304.07 185.424 303.948 185.007 303.623C184.57 303.301 184.309 302.866 184.226 302.318C184.143 301.769 184.262 301.277 184.584 300.839C184.884 300.405 185.298 300.148 185.826 300.067Z" fill="black"/>
<path d="M149.145 300.752L157.329 311.748L158.288 301.618L161.187 301.892L159.085 324.097L156.186 323.822L157.16 313.533L147.011 322.954L143.347 322.607L154.467 312.442L145.354 300.393L149.145 300.752Z" fill="black"/>
<path d="M118.66 303.244C118.815 302.711 119.01 302.157 119.244 301.581L132.702 305.498C133.082 303.809 132.898 302.345 132.148 301.104C131.371 299.878 130.246 299.051 128.771 298.622C127.563 298.27 126.478 298.254 125.519 298.575C124.532 298.91 123.738 299.501 123.136 300.348L120.125 299.471C121.047 297.984 122.333 296.925 123.983 296.295C125.627 295.684 127.452 295.671 129.46 296.256C131.057 296.721 132.387 297.497 133.448 298.583C134.489 299.664 135.177 300.964 135.512 302.484C135.842 304.024 135.753 305.664 135.246 307.405C134.74 309.146 133.947 310.571 132.869 311.679C131.791 312.787 130.526 313.508 129.074 313.841C127.595 314.188 126.036 314.123 124.398 313.646C122.8 313.181 121.488 312.421 120.462 311.367C119.436 310.313 118.774 309.076 118.476 307.656C118.152 306.251 118.213 304.78 118.66 303.244ZM121.379 304.668C121.069 305.734 121.039 306.714 121.289 307.609C121.534 308.524 122.009 309.296 122.715 309.923C123.395 310.566 124.226 311.03 125.209 311.316C126.623 311.727 127.962 311.629 129.228 311.019C130.474 310.404 131.401 309.319 132.009 307.763L121.379 304.668Z" fill="black"/>
<path d="M94.6359 291.997C94.8881 291.503 95.1834 290.995 95.5217 290.473L108.005 296.846C108.695 295.259 108.789 293.786 108.285 292.427C107.753 291.077 106.803 290.053 105.435 289.354C104.314 288.782 103.252 288.563 102.249 288.698C101.217 288.842 100.326 289.273 99.5759 289.992L96.7829 288.566C97.9673 287.278 99.429 286.479 101.168 286.17C102.897 285.879 104.693 286.209 106.555 287.16C108.037 287.916 109.197 288.928 110.036 290.194C110.855 291.451 111.287 292.857 111.331 294.413C111.366 295.987 110.97 297.582 110.146 299.197C109.321 300.812 108.275 302.063 107.009 302.949C105.742 303.835 104.364 304.305 102.875 304.359C101.358 304.423 99.8387 304.067 98.3188 303.291C96.8368 302.534 95.6907 301.542 94.8805 300.313C94.0704 299.085 93.6523 297.746 93.6264 296.296C93.5718 294.855 93.9083 293.422 94.6359 291.997ZM97.0384 293.906C96.5339 294.894 96.3207 295.851 96.3988 296.777C96.4671 297.722 96.7891 298.569 97.3648 299.318C97.9118 300.077 98.6412 300.689 99.5532 301.154C100.864 301.824 102.199 301.978 103.557 301.617C104.895 301.247 106.01 300.355 106.899 298.941L97.0384 293.906Z" fill="black"/>
<path d="M80.3958 288.283C79.3223 288.713 78.137 288.837 76.8398 288.655C75.5127 288.477 74.2547 287.918 73.0661 286.979C71.8439 286.014 70.9704 284.849 70.4454 283.483C69.9036 282.103 69.7713 280.653 70.0483 279.132C70.3121 277.628 70.9993 276.172 72.1099 274.766C73.2074 273.377 74.4704 272.363 75.8991 271.724C77.3277 271.085 78.7823 270.861 80.2628 271.052C81.7266 271.229 83.0695 271.801 84.2917 272.766C85.4636 273.691 86.2966 274.771 86.7908 276.004C87.255 277.24 87.4108 278.437 87.2581 279.594L94.4179 270.528L96.7032 272.333L80.6779 292.624L78.3927 290.819L80.3958 288.283ZM74.4454 276.611C73.6256 277.649 73.1209 278.718 72.9312 279.819C72.7416 280.919 72.848 281.955 73.2506 282.925C73.6364 283.882 74.2562 284.698 75.11 285.372C75.9471 286.034 76.8909 286.439 77.9413 286.589C78.9618 286.743 80.0004 286.598 81.0572 286.155C82.0839 285.715 83.0006 284.985 83.8071 283.964C84.6269 282.926 85.1382 281.848 85.3411 280.73C85.5141 279.617 85.4142 278.573 85.0416 277.599C84.6391 276.628 84.0193 275.813 83.1822 275.152C82.3283 274.477 81.3912 274.063 80.3707 273.91C79.3202 273.76 78.2816 273.905 77.2549 274.344C76.2149 274.8 75.2784 275.556 74.4454 276.611Z" fill="black"/>
<path d="M42.0576 261.115L53.7631 253.233C55.4088 252.124 56.3617 250.904 56.6218 249.572C56.8699 248.221 56.5114 246.83 55.5462 245.396C54.593 243.981 53.4501 243.143 52.1176 242.883C50.7732 242.605 49.2782 243.02 47.6325 244.128L35.927 252.011L34.3005 249.595L45.9794 241.731C47.5189 240.694 49.0281 240.128 50.5069 240.032C51.9679 239.949 53.3125 240.265 54.5406 240.981C55.7568 241.68 56.8058 242.683 57.6876 243.993C58.5693 245.302 59.1111 246.661 59.3129 248.068C59.5027 249.458 59.2842 250.814 58.6572 252.136C58.0006 253.453 56.9026 254.629 55.3631 255.666L43.6841 263.53L42.0576 261.115Z" fill="black"/>
<path d="M28.3104 227.235C27.4945 225.264 27.4347 223.418 28.1312 221.698C28.808 219.987 30.27 218.666 32.5171 217.736L42.0672 213.782L43.1687 216.443L34.003 220.237C32.3866 220.907 31.3219 221.821 30.8089 222.98C30.2761 224.147 30.2994 225.43 30.8787 226.83C31.4662 228.249 32.3789 229.199 33.6167 229.679C34.8464 230.14 36.3089 230.019 38.0041 229.318L46.9628 225.609L48.0766 228.3L31.8739 235.007L30.7602 232.316L33.0664 231.361C32.0182 231.172 31.0798 230.718 30.2511 229.999C29.4142 229.26 28.7673 228.339 28.3104 227.235Z" fill="black"/>
<path d="M19.1942 207.549C19.3289 208.087 19.2565 208.589 18.9772 209.054C18.6979 209.52 18.2892 209.82 17.7512 209.955C17.2131 210.09 16.7112 210.017 16.2455 209.738C15.7797 209.459 15.4795 209.05 15.3449 208.512C15.2155 207.994 15.293 207.513 15.5775 207.068C15.8568 206.603 16.2655 206.302 16.8035 206.168C17.3416 206.033 17.8435 206.105 18.3092 206.385C18.7698 206.643 19.0648 207.031 19.1942 207.549ZM21.6153 205.492L38.6269 201.235L39.3337 204.06L22.3221 208.316L21.6153 205.492Z" fill="black"/>
<path d="M12.8295 192.066L36.2542 188.597L36.6807 191.478L13.256 194.946L12.8295 192.066Z" fill="black"/>
<path d="M26.1729 179.827C24.3809 179.82 22.8144 179.451 21.4734 178.72C20.111 177.989 19.0591 176.993 18.3176 175.731C17.5761 174.448 17.2086 173.028 17.2149 171.471C17.2212 169.935 17.5573 168.603 18.2232 167.475C18.8892 166.347 19.7246 165.508 20.7295 164.957L17.5296 164.944L17.5416 162L35.0774 162.072L35.0654 165.016L31.8015 165.002C32.8231 165.582 33.6729 166.45 34.3509 167.605C35.0076 168.738 35.3328 170.062 35.3267 171.577C35.3203 173.134 34.9306 174.54 34.1574 175.796C33.3843 177.052 32.3029 178.039 30.9133 178.759C29.5237 179.478 27.9436 179.835 26.1729 179.827ZM26.2655 164.98C24.9428 164.974 23.7898 165.236 22.8063 165.766C21.8228 166.295 21.0731 167.017 20.5574 167.932C20.0204 168.826 19.7497 169.817 19.7453 170.905C19.7408 171.993 19.9928 172.986 20.5011 173.884C21.0095 174.782 21.7532 175.5 22.7323 176.037C23.7115 176.575 24.8624 176.846 26.1851 176.851C27.529 176.857 28.7035 176.595 29.7083 176.066C30.6918 175.537 31.452 174.825 31.989 173.931C32.5047 173.037 32.7647 172.046 32.7692 170.958C32.7736 169.87 32.5216 168.877 32.0133 167.979C31.4837 167.06 30.7294 166.331 29.7502 165.794C28.7497 165.257 27.5882 164.985 26.2655 164.98Z" fill="black"/>
<path d="M20.1583 141.316C20.4711 139.834 21.0678 138.608 21.9484 137.639C22.8334 136.648 23.8237 135.985 24.9193 135.649L21.7883 134.988L22.3963 132.108L39.9299 135.809C41.4954 136.139 42.813 136.766 43.8827 137.69C44.9732 138.618 45.7307 139.78 46.1552 141.178C46.5841 142.555 46.6245 144.068 46.2764 145.717C45.8006 147.971 44.8718 149.738 43.49 151.016C42.1083 152.294 40.4703 152.875 38.5762 152.759L39.171 149.941C40.2807 149.848 41.2523 149.377 42.0855 148.528C42.9397 147.684 43.5122 146.573 43.8029 145.195C44.1334 143.629 43.9116 142.253 43.1376 141.065C42.3681 139.856 41.0962 139.064 39.3219 138.689L35.7213 137.929C36.6042 138.704 37.2629 139.716 37.6974 140.963C38.1318 142.21 38.1926 143.575 37.8798 145.057C37.5582 146.58 36.8895 147.889 35.8737 148.983C34.8623 150.056 33.6033 150.804 32.0967 151.227C30.5902 151.651 28.9706 151.68 27.2381 151.314C25.4848 150.944 24.0255 150.265 22.8602 149.278C21.6741 148.286 20.8458 147.097 20.3752 145.712C19.9089 144.305 19.8366 142.84 20.1583 141.316ZM30.3359 136.793C29.0418 136.519 27.8595 136.542 26.7892 136.862C25.7189 137.181 24.8385 137.736 24.1481 138.528C23.4412 139.295 22.9754 140.21 22.7507 141.275C22.526 142.339 22.5716 143.363 22.8876 144.345C23.2035 145.328 23.7864 146.181 24.6365 146.906C25.4865 147.63 26.5586 148.129 27.8527 148.402C29.1678 148.68 30.3709 148.661 31.4621 148.346C32.5324 148.027 33.421 147.484 34.1279 146.718C34.8139 145.947 35.2693 145.029 35.4939 143.964C35.7186 142.9 35.673 141.876 35.3571 140.894C35.0247 139.886 34.4335 139.02 33.5835 138.296C32.7126 137.567 31.6301 137.066 30.3359 136.793Z" fill="black"/>
<path d="M37.6952 108.629C35.8167 107.531 34.3792 106.122 33.3827 104.402C32.3678 102.672 31.8621 100.832 31.8655 98.882C31.8797 96.9134 32.4089 95.0359 33.4533 93.2494C34.6808 91.1499 36.2586 89.6135 38.1867 88.6403C40.1148 87.667 42.2189 87.365 44.4989 87.7342L42.7385 90.7454C41.266 90.6011 39.9206 90.8524 38.7022 91.4993C37.4946 92.1277 36.4817 93.1418 35.6634 94.5415C34.8774 95.8859 34.4852 97.2753 34.4869 98.7095C34.4886 100.144 34.8919 101.504 35.6969 102.79C36.4834 104.065 37.6502 105.155 39.1972 106.06C40.7258 106.953 42.2479 107.435 43.7635 107.506C45.2606 107.566 46.6346 107.245 47.8852 106.543C49.1359 105.84 50.1542 104.817 50.9402 103.473C51.7585 102.073 52.1545 100.698 52.1281 99.3485C52.0941 97.9695 51.6531 96.6737 50.8051 95.4613L52.5655 92.4502C53.9873 94.2451 54.7471 96.2214 54.8448 98.379C54.9241 100.526 54.35 102.649 53.1226 104.749C52.0782 106.535 50.7109 107.923 49.0208 108.912C47.323 109.871 45.4806 110.339 43.4936 110.314C41.5065 110.289 39.5737 109.727 37.6952 108.629Z" fill="black"/>
<path d="M47.7638 71.0886L66.0053 86.188L64.1485 88.4312L45.907 73.3318L47.7638 71.0886Z" fill="black"/>
<path d="M78.049 60.9963C78.4213 61.4074 78.7913 61.8638 79.1592 62.3653L68.7696 71.7731C70.0085 72.9824 71.3527 73.5928 72.802 73.6042C74.2529 73.5856 75.5476 73.0607 76.6862 72.0297C77.6192 71.1849 78.2008 70.2698 78.4309 69.2844C78.6625 68.2688 78.5755 67.2828 78.1698 66.3262L80.4944 64.2213C81.2777 65.7856 81.5055 67.4356 81.1778 69.1714C80.8357 70.8913 79.8898 72.4529 78.3401 73.8562C77.1066 74.9731 75.7491 75.6987 74.2675 76.033C72.8017 76.353 71.3338 76.2576 69.8639 75.7467C68.3797 75.22 67.029 74.2845 65.8118 72.9404C64.5947 71.5962 63.7968 70.1747 63.418 68.6758C63.0392 67.1768 63.0887 65.7218 63.5665 64.3107C64.0458 62.8694 64.918 61.576 66.183 60.4305C67.4165 59.3136 68.7511 58.5944 70.1867 58.2729C71.6224 57.9514 73.0228 58.0359 74.388 58.5265C75.7547 58.987 76.975 59.8102 78.049 60.9963ZM75.4112 62.5646C74.6666 61.7423 73.8475 61.2032 72.954 60.9475C72.0461 60.6759 71.1399 60.6763 70.2353 60.9486C69.3322 61.1908 68.5011 61.6555 67.742 62.3428C66.6509 63.3309 66.0329 64.5236 65.8881 65.921C65.7591 67.3042 66.1977 68.6626 67.2039 69.9963L75.4112 62.5646Z" fill="black"/>
<path d="M85.9539 55.7509C85.0334 54.2133 84.5391 52.6817 84.4711 51.156C84.3921 49.612 84.7007 48.1964 85.3971 46.9092C86.1118 45.6111 87.1372 44.562 88.4734 43.7621C89.7913 42.9731 91.1051 42.5719 92.4149 42.5585C93.7247 42.5452 94.8751 42.8261 95.866 43.4015L94.2223 40.6559L96.7482 39.1437L105.756 54.1894L103.23 55.7016L101.553 52.9011C101.585 54.0756 101.282 55.2516 100.644 56.429C100.014 57.5772 99.0491 58.5404 97.7496 59.3184C96.4134 60.1184 95.0081 60.5121 93.5337 60.4997C92.0592 60.4873 90.6547 60.0726 89.3201 59.2554C87.9855 58.4383 86.8634 57.2701 85.9539 55.7509ZM98.7097 48.1513C98.0303 47.0165 97.2097 46.1651 96.2481 45.5971C95.2864 45.029 94.2805 44.761 93.2305 44.7929C92.1878 44.7956 91.1997 45.0763 90.2662 45.6352C89.3327 46.1941 88.613 46.9233 88.1073 47.8228C87.6015 48.7224 87.3719 49.7301 87.4184 50.846C87.4649 51.962 87.8278 53.0873 88.5072 54.2222C89.1976 55.3753 90.0291 56.245 91.0018 56.8314C91.9634 57.3994 92.9656 57.682 94.0083 57.6794C95.0401 57.6584 96.0227 57.3685 96.9562 56.8096C97.8897 56.2508 98.6093 55.5216 99.1151 54.622C99.6282 53.6932 99.8615 52.6709 99.815 51.5549C99.7576 50.4207 99.3891 49.2862 98.7097 48.1513Z" fill="black"/>
<path d="M116.974 30.2436C118.986 29.5336 120.832 29.5721 122.512 30.359C124.185 31.1258 125.427 32.6559 126.236 34.9493L129.676 44.696L126.96 45.6545L123.659 36.3001C123.077 34.6505 122.22 33.5387 121.09 32.9648C119.953 32.3707 118.67 32.3258 117.242 32.8299C115.794 33.3411 114.797 34.202 114.251 35.4126C113.726 36.616 113.768 38.0828 114.379 39.8129L117.606 48.9561L114.86 49.9253L109.024 33.389L111.77 32.4199L112.6 34.7736C112.845 33.7369 113.349 32.824 114.111 32.0347C114.893 31.2383 115.847 30.6413 116.974 30.2436Z" fill="black"/>
<path d="M140.484 42.4946C139.94 42.6025 139.442 42.5055 138.991 42.2035C138.54 41.9016 138.26 41.4785 138.152 40.9345C138.044 40.3904 138.141 39.8927 138.443 39.4413C138.745 38.99 139.168 38.7103 139.712 38.6024C140.235 38.4987 140.712 38.5999 141.143 38.906C141.594 39.2079 141.874 39.6309 141.982 40.175C142.089 40.7191 141.992 41.2168 141.69 41.6682C141.409 42.1154 141.007 42.3909 140.484 42.4946Z" fill="black"/>
</svg>
