<svg width="136" height="41" viewBox="0 0 136 41" fill="none" xmlns="http://www.w3.org/2000/svg">
<path d="M20.4878 40.333C18.2873 40.333 16.1079 40.0791 13.9497 39.5713C11.8338 39.0635 9.80257 38.3229 7.85596 37.3496C5.90934 36.334 4.19548 35.001 2.71436 33.3506C1.23324 31.7002 0.429199 29.7324 0.302246 27.4473V24.7812V4.53223C0.302246 3.34733 0.725423 2.37402 1.57178 1.6123C2.46045 0.808268 3.49723 0.40625 4.68213 0.40625C7.22119 0.617839 8.59652 1.99316 8.80811 4.53223V25.4795C8.89274 26.7913 9.37939 27.8916 10.2681 28.7803C11.1991 29.6266 12.2147 30.3037 13.3149 30.8115C14.4575 31.3193 15.6213 31.7002 16.8062 31.9541C18.0334 32.208 19.2606 32.335 20.4878 32.335C21.715 32.335 22.9211 32.208 24.106 31.9541C25.3332 31.7002 26.4969 31.3193 27.5972 30.8115C28.7397 30.3037 29.7554 29.6266 30.644 28.7803C31.575 27.8916 32.0828 26.7913 32.1675 25.4795V4.53223C32.1675 3.34733 32.5907 2.37402 33.437 1.6123C34.3257 0.808268 35.3625 0.40625 36.5474 0.40625C39.0864 0.617839 40.4829 1.99316 40.7368 4.53223V24.7812V27.4473C40.6099 29.7324 39.7847 31.7002 38.2612 33.3506C36.7801 35.001 35.0662 36.334 33.1196 37.3496C31.173 38.3229 29.1206 39.0635 26.9624 39.5713C24.8465 40.0791 22.6883 40.333 20.4878 40.333ZM63.6519 9.92773C62.0438 10.0124 60.6896 10.626 59.5894 11.7686C58.5314 12.9111 57.7697 14.223 57.3042 15.7041C56.8387 17.1429 56.606 18.624 56.606 20.1475C56.606 21.6709 56.8175 23.1732 57.2407 24.6543C57.7062 26.1354 58.4891 27.4473 59.5894 28.5898C60.6896 29.6901 62.0438 30.2826 63.6519 30.3672H84.5991C87.2651 30.6211 88.7251 32.0811 88.979 34.7471C88.9367 35.932 88.4924 36.9264 87.646 37.7305C86.7996 38.4922 85.784 38.873 84.5991 38.873H64.3501H61.4302C58.4679 38.7038 56.0347 37.5824 54.1304 35.5088C52.2261 33.3929 50.8507 31.002 50.0044 28.3359C49.2004 25.6699 48.7983 22.9404 48.7983 20.1475C48.7983 18.0739 49.0311 16.0215 49.4966 13.9902C49.9621 11.959 50.6815 10.0335 51.6548 8.21387C52.6704 6.35189 54.0034 4.76497 55.6538 3.45312C57.3465 2.14128 59.272 1.46419 61.4302 1.42188H62.6362H84.5991C87.2651 1.67578 88.7251 3.13574 88.979 5.80176C88.979 6.98665 88.5347 7.98112 87.646 8.78516C86.7996 9.54688 85.784 9.92773 84.5991 9.92773H63.6519ZM115.068 40.333C112.867 40.333 110.688 40.0791 108.53 39.5713C106.414 39.0635 104.383 38.3229 102.436 37.3496C100.489 36.334 98.7756 35.001 97.2944 33.3506C95.8133 31.7002 95.0093 29.7324 94.8823 27.4473V24.7812V4.53223C94.8823 3.34733 95.3055 2.37402 96.1519 1.6123C97.0405 0.808268 98.0773 0.40625 99.2622 0.40625C101.801 0.617839 103.177 1.99316 103.388 4.53223V25.4795C103.473 26.7913 103.959 27.8916 104.848 28.7803C105.779 29.6266 106.795 30.3037 107.895 30.8115C109.038 31.3193 110.201 31.7002 111.386 31.9541C112.613 32.208 113.841 32.335 115.068 32.335C116.295 32.335 117.501 32.208 118.686 31.9541C119.913 31.7002 121.077 31.3193 122.177 30.8115C123.32 30.3037 124.335 29.6266 125.224 28.7803C126.155 27.8916 126.663 26.7913 126.748 25.4795V4.53223C126.748 3.34733 127.171 2.37402 128.017 1.6123C128.906 0.808268 129.943 0.40625 131.127 0.40625C133.667 0.617839 135.063 1.99316 135.317 4.53223V24.7812V27.4473C135.19 29.7324 134.365 31.7002 132.841 33.3506C131.36 35.001 129.646 36.334 127.7 37.3496C125.753 38.3229 123.701 39.0635 121.542 39.5713C119.427 40.0791 117.268 40.333 115.068 40.333Z" fill="#F2BF00"/>
</svg>
